<?xml version="1.0" standalone="no"?>
<!DOCTYPE svg PUBLIC "-//W3C//DTD SVG 1.1//EN" "http://www.w3.org/Graphics/SVG/1.1/DTD/svg11.dtd" >
<svg xmlns="http://www.w3.org/2000/svg">
<metadata></metadata>
<defs>
<font id="pf_centro_sans_proLtIt" horiz-adv-x="1058" >
<font-face units-per-em="2048" ascent="1536" descent="-512" />
<missing-glyph horiz-adv-x="524" />
<glyph unicode="&#xfb01;" horiz-adv-x="1030" d="M-272 -418q11 50 20 80q67 -14 135 -14q81 0 129.5 35.5t80 123t54.5 252.5q36 294 99 848h-154q0 2 2 26t4 38q48 7 158 28l20 146q24 180 119 258t264 78q162 0 261 -31l-19 -84q-135 23 -231 23q-140 0 -201.5 -54.5t-83.5 -195.5q-1 -10 -8 -56.5t-12 -91.5h251 q164 0 308 25q3 -1 11 -6t11 -6q-17 -131 -123 -1004h-110l108 907h-467q-18 -132 -47.5 -406.5t-46.5 -404.5q-10 -75 -18.5 -125t-23.5 -111.5t-32.5 -101.5t-44.5 -81.5t-60.5 -65t-80 -38.5t-104.5 -15q-98 4 -168 24z" />
<glyph unicode="&#xfb02;" horiz-adv-x="1036" d="M-272 -418q4 14 11.5 40.5t10.5 37.5q80 -14 135 -14q77 0 125 36t80 123t55 246q30 231 48 383t32.5 288t20.5 185h-152l6 64q57 9 156 28q3 23 10 77.5t13 90.5q12 75 39.5 131t64.5 90.5t88 55t103.5 28t117.5 7.5q70 0 217 -21l68 8l18 -16l-164 -1356l134 4l8 -78 q-78 -34 -162 -34q-49 0 -69.5 17.5t-20.5 59.5q0 28 2 46q109 877 151 1257q-95 18 -204 18q-69 0 -115 -10.5t-83.5 -37.5t-59 -76.5t-31.5 -126.5l-16 -142h305l-13 -84h-305q-39 -380 -92 -811q-9 -72 -17.5 -123.5t-23 -111.5t-32 -101.5t-44.5 -82t-61 -65 t-80.5 -39.5t-103.5 -15q-82 0 -170 24z" />
<glyph unicode="&#xfb03;" horiz-adv-x="1583" d="M-266 -420l20 76q80 -14 135 -14q116 0 174.5 84t86.5 294q76 596 106 891h-152l7 58q24 6 155 30l13 105q25 189 136.5 273.5t297.5 84.5q129 0 248 -37q50 44 126.5 67.5t161.5 23.5q112 0 250 -29l-18 -86q-116 22 -219 22q-140 0 -209 -55t-86 -197l-21 -178h223 q164 0 308 25l22 -12q-9 -66 -25.5 -203.5t-44.5 -373.5t-51 -427h-110l108 909h-438q-34 -311 -80 -686q-11 -89 -18 -140.5t-22 -128t-32 -121t-45.5 -97t-64 -80t-87 -47t-114.5 -19.5q-71 0 -160 25l23 78q93 -14 127 -14q119 0 177 93t83 281q39 293 102 856h-462 q-36 -349 -84 -727q-9 -84 -16.5 -139t-22 -127.5t-31.5 -119.5t-45.5 -97t-64 -79t-86 -47.5t-113.5 -18.5q-82 0 -168 24zM375 991h461l26 217q11 74 41 133q-118 27 -196 27q-76 0 -128 -12.5t-93.5 -44.5t-65.5 -89t-35 -145q0 -6 -5 -43t-5 -43z" />
<glyph unicode="&#xfb04;" horiz-adv-x="1617" d="M-266 -418l22 76q80 -14 133 -14q118 0 174 81.5t84 292.5q89 716 107 891h-154q5 25 9 60l155 30q4 53 25 162q32 152 134.5 226.5t264.5 74.5q143 0 270 -39q100 95 287 95q54 0 225 -19l97 8l14 -10q-135 -1108 -172 -1399l133 4l8 -77q-71 -35 -161 -35 q-48 0 -70.5 18.5t-22.5 59.5q0 29 2 47l164 1290q-99 18 -211 18q-130 0 -196 -54t-86 -179q-23 -172 -25 -199h301l-12 -82h-297q-15 -144 -86 -719q-29 -235 -55 -327q-53 -187 -175 -243q-62 -28 -145 -28q-66 0 -160 23q21 70 23 80q74 -14 127 -14q122 0 179 90.5 t83 289.5q9 71 51 437t47 411h-460q-40 -364 -95 -807q-9 -77 -18 -131.5t-23.5 -115.5t-32.5 -102.5t-45.5 -81.5t-62 -63.5t-81.5 -37.5t-105 -14q-72 0 -168 26zM373 991h463q6 65 26 211q9 67 39 139q-106 25 -205 25q-143 0 -218 -65t-95 -226z" />
<glyph horiz-adv-x="2048" />
<glyph horiz-adv-x="2048" />
<glyph unicode="&#xd;" horiz-adv-x="2048" />
<glyph unicode=" "  horiz-adv-x="524" />
<glyph unicode="&#x09;" horiz-adv-x="524" />
<glyph unicode="&#xa0;" horiz-adv-x="524" />
<glyph unicode="!" horiz-adv-x="411" d="M80 55q0 40 29 69.5t67 29.5q33 0 53.5 -21.5t20.5 -54.5v-6q-1 -39 -29.5 -65.5t-64.5 -26.5q-32 0 -54 21.5t-22 53.5zM152 334l38 401l80 682h113l-84 -688l-59 -395h-88z" />
<glyph unicode="&#x22;" horiz-adv-x="458" d="M199 1010l22 391h109l-72 -391h-59zM375 1010l24 391h109l-70 -391h-63z" />
<glyph unicode="#" horiz-adv-x="1030" d="M86 412l23 71h147q6 17 35.5 103.5t56 166.5t33.5 105h-154l23 70h156q10 33 118 352h74l-119 -352h324l119 352h75l-118 -352h151l-24 -70h-152q-7 -25 -33.5 -105t-56 -166.5t-35.5 -103.5h160l-23 -71h-159l-136 -412h-73l133 412h-324l-135 -412h-74l135 412h-147z M332 483h321l127 375h-323z" />
<glyph unicode="$" horiz-adv-x="1056" d="M84 111l47 77q52 -31 103 -50t76.5 -24t72.5 -12l74 590q-252 95 -252 307q0 146 94.5 240t237.5 119l16 135h61l-202 -1649h-62l21 168q-161 16 -287 99zM305 1010q0 -84 42.5 -133t121.5 -82l57 467q-96 -22 -158.5 -86t-62.5 -166zM479 -156l203 1649h61l-16 -131 q136 -10 236 -74l-43 -82q-103 54 -203 64l-66 -537q54 -24 88.5 -42t76 -48t65.5 -62t40.5 -79.5t16.5 -104.5q0 -86 -30 -155.5t-83 -115t-119 -73.5t-145 -39l-20 -170h-62zM573 109q118 16 192.5 88t74.5 196q0 154 -203 236z" />
<glyph unicode="%" horiz-adv-x="1617" d="M113 831q0 36 3 74.5t12.5 93t25.5 103.5t44.5 99t66 86t94 58.5t124.5 22.5q265 0 265 -307q0 -66 -9 -132t-34 -138t-64 -126.5t-104.5 -90t-149.5 -35.5q-274 0 -274 292zM209 827q0 -100 42.5 -155.5t143.5 -55.5q60 0 106.5 30t74 75.5t45 106t24 115t6.5 108.5 q0 239 -170 239q-54 0 -98 -22t-71.5 -55t-48 -80.5t-30.5 -89t-16 -90.5t-7 -74.5t-1 -51.5zM446 -47l760 1479h78l-752 -1479h-86zM952 285q0 36 3 74.5t12.5 93t25.5 103.5t45 99t66.5 86t94 59t124.5 23q262 0 262 -307q0 -68 -8.5 -134t-33.5 -138.5t-63.5 -126.5 t-104 -89.5t-150.5 -35.5q-273 0 -273 293zM1047 281q0 -99 43 -154t145 -55q60 0 106.5 29.5t74 74.5t45 105.5t24 114.5t6.5 108q0 239 -170 239q-54 0 -98 -22t-72 -55t-48.5 -80t-31 -88.5t-16.5 -90t-7 -74.5t-1 -52z" />
<glyph unicode="&#x26;" horiz-adv-x="1685" d="M59 666q16 108 53.5 209t102 194.5t150 162.5t205 110.5t257.5 41.5q123 0 222 -30.5t166.5 -83t113 -125.5t66 -156.5t20.5 -177.5q0 -100 -31 -231q12 -1 36.5 -4t37.5 -3q85 0 137 28t99 95l53 -39q-46 -81 -116 -123t-175 -42q-44 0 -96 12q-42 -104 -108.5 -196.5 t-152.5 -165t-193.5 -114.5t-221.5 -42q-108 0 -189 32t-127.5 87.5t-69 123t-22.5 146.5q0 112 24.5 209t65 164t93 115.5t108 71.5t109.5 23q95 0 142.5 -54t47.5 -120q0 -102 -98 -180q0 -2 2 -4q138 27 231 27q120 0 289 -35q29 113 29 209q0 105 -27.5 192t-85.5 157 t-158 109t-235 39q-140 0 -258 -51.5t-200 -140.5t-135.5 -203t-76.5 -246q-43 3 -84 9zM373 389q0 -159 85.5 -243.5t237.5 -84.5q167 0 329.5 128.5t238.5 326.5q-155 35 -285 35q-137 0 -289 -47l-26 4l-33 57q65 47 103 98.5t38 96.5q0 49 -29 78.5t-77 29.5t-98 -29.5 t-94.5 -85.5t-72.5 -151t-28 -213z" />
<glyph unicode="'" horiz-adv-x="329" d="M207 1010l24 391h109l-70 -391h-63z" />
<glyph unicode="(" horiz-adv-x="536" d="M125 362q0 168 33 330.5t77 276.5t106.5 223t103 163.5t83.5 104.5l41 -33q-33 -45 -67 -99t-86.5 -163.5t-91 -225.5t-67 -281.5t-28.5 -335.5q0 -348 129 -639l-53 -35q-180 316 -180 714z" />
<glyph unicode=")" horiz-adv-x="540" d="M-12 -315q37 52 67 98.5t87.5 160.5t96 229t69 286t30.5 348q0 357 -135 620l51 33q188 -308 188 -694q0 -175 -36 -346t-82 -286t-112.5 -229t-102 -161t-76.5 -96z" />
<glyph unicode="*" horiz-adv-x="712" d="M176 1151q12 73 53 125q17 -12 98 -56t99 -55q-1 14 -2.5 114.5t-3.5 125.5q70 18 125 0q-61 -218 -68 -240l230 101q28 -53 20 -127l-242 -27q14 -16 71 -87.5t71 -86.5q-44 -53 -109 -74q-7 22 -40.5 111.5t-39.5 105.5l-129 -217q-59 21 -92 74q17 14 90.5 86t93.5 88 z" />
<glyph unicode="+" d="M176 565l12 88h328l41 334h90l-41 -334h326l-12 -88h-324l-43 -346h-88l41 346h-330z" />
<glyph unicode="," horiz-adv-x="335" d="M-2 -176q73 73 92 170q-25 4 -39 22.5t-14 44.5q0 39 26.5 69t65.5 30q37 0 58.5 -24.5t21.5 -65.5q0 -69 -55.5 -155t-130.5 -128z" />
<glyph unicode="-" horiz-adv-x="686" d="M109 477l14 103h479l-12 -103h-481z" />
<glyph unicode="." horiz-adv-x="352" d="M47 63q0 38 27.5 67.5t64.5 29.5q32 0 53 -22t21 -54q0 -39 -29.5 -67.5t-64.5 -28.5q-32 0 -52 21t-20 54z" />
<glyph unicode="/" horiz-adv-x="638" d="M-37 -55l694 1487h82l-694 -1487h-82z" />
<glyph unicode="0" d="M80 473q0 60 4 123.5t18 156t37 174.5t66 167t99.5 145.5t142 99.5t190.5 39q399 0 399 -530q0 -78 -7 -156.5t-25 -164.5t-45 -162.5t-70.5 -147t-98.5 -121t-131.5 -80.5t-166.5 -30q-95 0 -167.5 26.5t-117.5 70t-74 108t-40.5 132.5t-12.5 150zM193 465 q1 -89 16 -156t49 -120.5t95 -81t149 -27.5q72 0 132.5 27.5t103.5 73.5t76 110t53.5 132.5t33.5 146t18 145t5 135.5q0 434 -289 434q-70 0 -129.5 -24t-101.5 -62.5t-76.5 -96t-56 -113.5t-37 -125.5t-23.5 -123.5t-12.5 -116t-5 -93t-0.5 -65z" />
<glyph unicode="1" d="M283 1257l340 101h106l-164 -1358h-112l153 1239l-321 -53z" />
<glyph unicode="2" d="M18 0l9 84q291 254 392 351q312 299 383 495q23 64 23 121q0 112 -68.5 167.5t-185.5 55.5q-169 0 -360 -113l-41 76q107 72 216.5 105.5t201.5 33.5q160 0 257 -77t97 -228q0 -50 -13.5 -102.5t-33 -99.5t-57 -103.5t-68.5 -99t-86.5 -102t-92.5 -97t-103.5 -99.5 t-102.5 -93.5t-107.5 -95t-101.5 -89.5h696l-8 -90h-846z" />
<glyph unicode="3" d="M20 55l35 80q179 -63 342 -63q111 0 205 40t153.5 119t59.5 183q0 135 -97.5 210.5t-250.5 75.5q-49 0 -90 -8q-1 8 -8.5 40.5t-8.5 43.5q234 43 346.5 132.5t112.5 191.5q0 85 -65 140.5t-197 55.5q-137 0 -342 -88l-31 76q195 107 391 107q179 0 268 -75.5t89 -189.5 q0 -107 -79.5 -205t-238.5 -149v-10q131 -18 222.5 -109.5t91.5 -226.5q0 -89 -37 -169.5t-103.5 -141.5t-165.5 -97t-216 -36q-250 0 -386 73z" />
<glyph unicode="4" d="M45 391l12 88q122 145 373 436.5t377 440.5h119q-13 -101 -35.5 -277t-41 -323t-34.5 -277h197q-1 -14 -5.5 -43t-5.5 -45h-196l-43 -391h-115l49 391h-651zM168 479h541q48 411 90 738h-6q-45 -60 -162.5 -199.5t-278 -325t-184.5 -213.5z" />
<glyph unicode="5" d="M51 57l39 86q165 -63 318 -63q193 0 309.5 98.5t116.5 290.5q0 134 -84.5 204t-221.5 70q-125 0 -245 -57l-68 47l98 625h678l-14 -94h-578l-73 -473q4 1 35.5 12t54 17t67 12t92.5 6q74 0 138 -20t117.5 -61.5t84.5 -113t31 -166.5q0 -123 -44 -220t-117.5 -155.5 t-163.5 -89t-189 -30.5q-224 0 -381 75z" />
<glyph unicode="6" d="M117 444q0 194 41 363.5t116 296t189 199.5t252 73q171 0 278 -61q-2 -4 -9.5 -23.5t-14.5 -37t-11 -23.5q-117 51 -247 51q-89 0 -164.5 -42.5t-123.5 -103.5t-85.5 -141t-55 -140.5t-28.5 -117.5l8 -6q176 107 369 107q154 0 249 -86t95 -267q0 -227 -136.5 -363 t-349.5 -136q-105 0 -179.5 33.5t-115.5 97t-59 143t-18 184.5zM225 436q0 -70 12 -128.5t40.5 -113t84.5 -85.5t136 -31q171 0 268.5 111t97.5 286q0 129 -60 198.5t-202 69.5q-44 0 -87 -6t-77 -16t-64.5 -21.5t-53.5 -24t-39.5 -22t-27 -17t-11.5 -7.5q-1 -11 -6.5 -54 t-8 -75t-2.5 -64z" />
<glyph unicode="7" d="M195 0l708 1264h-680l13 94h765l15 -92l-707 -1266h-114z" />
<glyph unicode="8" d="M74 313q0 133 81 256.5t236 198.5q-158 96 -158 246t122.5 258t308.5 108q94 0 170.5 -30t127 -99.5t50.5 -169.5q0 -202 -256 -372q198 -106 198 -324q0 -74 -31 -144t-88.5 -127.5t-150.5 -92.5t-207 -35q-199 0 -301 92t-102 235zM186 324q0 -108 74 -178t227 -70 q89 0 160 27.5t113 72t64 97t22 106.5q0 46 -10 83t-33.5 68.5t-51 55t-75 48.5t-91.5 44.5t-114 46.5q-149 -80 -217 -187.5t-68 -213.5zM344 1024q0 -47 18.5 -83.5t71 -71t82 -49.5t113.5 -52q7 -4 11.5 -6t11 -5t12.5 -5q239 152 239 317q0 41 -12.5 77.5t-40 69 t-79.5 51.5t-124 19q-69 0 -124 -20.5t-87.5 -51t-54 -68t-29.5 -68t-8 -54.5z" />
<glyph unicode="9" d="M117 49q2 4 9.5 23.5t14.5 37t11 23.5q117 -51 247 -51q89 0 164.5 42.5t123.5 103.5t85.5 141t55 140.5t28.5 117.5l-8 6q-176 -107 -369 -107q-154 0 -249 86t-95 267q0 227 136.5 363t349.5 136q105 0 179.5 -33.5t115.5 -97t59 -143t18 -184.5q0 -194 -41 -363.5 t-116 -296t-189 -199.5t-252 -73q-171 0 -278 61zM246 889q0 -129 60 -198.5t202 -69.5q44 0 87 6t77 16t64.5 21.5t53.5 24t39.5 22t27 17t11.5 7.5q1 11 6.5 54t8 75t2.5 64q0 70 -12 128.5t-40.5 113t-84.5 85.5t-136 31q-171 0 -268.5 -111t-97.5 -286z" />
<glyph unicode=":" horiz-adv-x="350" d="M51 66q0 40 28 68t66 28q31 0 51.5 -21.5t20.5 -52.5q0 -40 -27.5 -69t-64.5 -29q-33 0 -53.5 22t-20.5 54zM129 705q0 39 28.5 66.5t65.5 27.5q32 0 53 -22.5t21 -53.5q0 -38 -29 -67t-65 -29q-32 0 -53 22.5t-21 55.5z" />
<glyph unicode=";" horiz-adv-x="350" d="M8 -176q75 75 94 170q-53 9 -53 67q0 39 26.5 69t65.5 30q36 0 58 -24.5t22 -65.5q0 -69 -56.5 -155t-131.5 -128zM129 705q0 39 28.5 66.5t65.5 27.5q32 0 53 -22.5t21 -53.5q0 -38 -29 -67t-65 -29q-32 0 -53 22.5t-21 55.5z" />
<glyph unicode="&#x3c;" d="M172 565l10 84l803 398l-12 -107l-692 -334l610 -338l-12 -102z" />
<glyph unicode="=" d="M147 426l11 88h762l-11 -88h-762zM182 717l13 90h761l-10 -90h-764z" />
<glyph unicode="&#x3e;" d="M123 166l14 106l694 338q-9 4 -307 167t-307 167l14 103l707 -398l-12 -84z" />
<glyph unicode="?" horiz-adv-x="843" d="M197 1376q189 64 356 64t250.5 -64t83.5 -182q0 -94 -59 -171t-166 -161q-83 -63 -130.5 -104.5t-93 -93.5t-65 -104.5t-19.5 -113.5q0 -22 4 -92q-14 -1 -49 -7t-47 -7q-4 78 -4 104q0 134 65.5 231t239.5 230q55 42 84.5 66.5t62.5 59.5t47 70t15 75q0 86 -63 125.5 t-170 39.5q-150 0 -322 -55zM227 57q0 38 29 67.5t66 29.5q33 0 54 -21.5t21 -52.5q0 -40 -29.5 -69t-64.5 -29q-31 0 -53.5 21.5t-22.5 53.5z" />
<glyph unicode="@" horiz-adv-x="1800" d="M168 596q0 178 69.5 338t188 274.5t284 182t349.5 67.5q304 0 475.5 -160t171.5 -436q0 -136 -40 -246t-104 -175.5t-137.5 -99.5t-146.5 -34q-57 0 -95.5 18.5t-59 56.5t-30 78.5t-14.5 102.5q-61 -137 -143.5 -195.5t-167.5 -58.5q-100 0 -158.5 74t-58.5 207 q0 115 26.5 215.5t77 177.5t130.5 121.5t180 44.5q87 0 204 -45l17 45l78 -8q-6 -29 -19 -96.5t-20 -104t-18.5 -96t-17.5 -97t-13 -80.5t-10 -73t-3 -49q0 -73 32.5 -113.5t98.5 -40.5q38 0 79.5 15.5t85 51.5t78.5 87.5t57 132t22 176.5q0 249 -148.5 384.5t-412.5 135.5 q-168 0 -317.5 -62t-254 -166.5t-165 -246t-60.5 -297.5q0 -171 69.5 -305t200.5 -209.5t303 -75.5q137 0 248 35l25 -70q-101 -45 -279 -45q-200 0 -349.5 85t-228.5 235t-79 344zM651 610q0 -106 38.5 -161.5t103.5 -55.5q37 0 73.5 18t77 63t76 114.5t69.5 181t58 252.5 q-90 45 -189 45q-75 0 -135.5 -40t-97 -106t-55.5 -146t-19 -165z" />
<glyph unicode="A" horiz-adv-x="1095" d="M-20 0q177 409 612 1399h151q156 -828 269 -1399h-121q-8 42 -21.5 119t-25.5 141.5t-23 120.5h-559q-104 -249 -162 -381h-120zM305 477h498q-8 53 -70.5 407t-73.5 410h-6q-23 -52 -144 -339t-204 -478z" />
<glyph unicode="B" horiz-adv-x="1157" d="M104 0l170 1397h451q176 0 263 -83.5t87 -226.5q0 -109 -50.5 -202t-166.5 -146l-4 -12q30 -13 57 -33t57 -55t48 -92t18 -129q0 -89 -35 -168t-93 -133t-133.5 -85.5t-154.5 -31.5h-514zM229 94h361q82 0 146.5 27t103 73t58.5 104.5t20 125.5q0 108 -68.5 181 t-190.5 73h-358q-33 -280 -72 -584zM315 774h324q142 0 229.5 84t87.5 221q0 104 -64.5 164t-199.5 60h-311q-14 -99 -35.5 -280.5t-30.5 -248.5z" />
<glyph unicode="C" horiz-adv-x="1132" d="M143 532q0 69 7.5 142.5t27.5 162.5t51.5 169t84 157.5t119.5 133.5t164 90t212 34q192 0 332 -55l-33 -90q-134 47 -299 47q-178 0 -302 -102t-182.5 -279t-58.5 -416q0 -100 17.5 -175t59.5 -138t121 -96t193 -33q66 0 161 11.5t173 35.5l23 -88q-73 -26 -182.5 -41.5 t-204.5 -15.5q-257 0 -370.5 140t-113.5 406z" />
<glyph unicode="D" horiz-adv-x="1236" d="M106 0l170 1401h412q108 0 190 -27.5t134 -75t84.5 -118t45.5 -148.5t13 -174q0 -142 -20.5 -264.5t-69.5 -233.5t-123 -189.5t-186.5 -124.5t-255.5 -46h-394zM236 98h260q27 0 51.5 1.5t66.5 9.5t77.5 21.5t80 41t80 64t70.5 93.5t59 128t38.5 169t14.5 214 q0 93 -15 167.5t-37 122t-57 82.5t-66 52.5t-73.5 27t-69.5 11.5t-63 2h-270z" />
<glyph unicode="E" horiz-adv-x="1036" d="M106 0l170 1399h768l-10 -94h-653l-64 -517h572l-12 -94h-572l-72 -598h703l-8 -96h-822z" />
<glyph unicode="F" horiz-adv-x="995" d="M106 0l170 1399h768l-10 -96h-653l-64 -521h562l-13 -96h-561l-82 -686h-117z" />
<glyph unicode="G" horiz-adv-x="1212" d="M143 528q0 70 7.5 143.5t28 163t53 170t87 158t125 133.5t172 90.5t222.5 34.5q181 0 336 -51l-33 -94q-151 47 -303 47q-186 0 -316 -100.5t-193 -278t-63 -418.5q0 -79 10 -141.5t36.5 -120t69 -95.5t111 -60.5t158.5 -22.5q62 0 143 10.5t132 28.5l71 584h111 l-84 -664q-180 -59 -399 -59q-254 0 -368 139.5t-114 402.5z" />
<glyph unicode="H" horiz-adv-x="1241" d="M106 0l170 1399h119q-4 -38 -76 -608h687l73 608h121l-170 -1399h-121l84 688h-686q-36 -273 -82 -688h-119z" />
<glyph unicode="I" horiz-adv-x="473" d="M125 0l172 1401h117l-172 -1401h-117z" />
<glyph unicode="J" horiz-adv-x="563" d="M-176 -274q110 42 182 89.5t116 110.5t65.5 133t33.5 172l146 1170h116l-141 -1161q-33 -259 -138.5 -396.5t-346.5 -210.5z" />
<glyph unicode="K" horiz-adv-x="1091" d="M106 0l170 1401h117l-84 -674l719 674h139l-604 -561l445 -840h-127l-400 758l-188 -172l-72 -586h-115z" />
<glyph unicode="L" horiz-adv-x="1038" d="M133 0l170 1399h117l-160 -1305h715l-10 -94h-832z" />
<glyph unicode="M" horiz-adv-x="1550" d="M78 0l284 1401h127l216 -881l55 -254h12l111 256l399 879h129l-10 -1401h-115l14 903l7 297h-9q-4 -8 -54.5 -125.5t-69.5 -159.5q-16 -36 -170.5 -363.5t-200.5 -426.5h-115l-190 788q-8 32 -22.5 98.5t-27 119.5t-14.5 63h-10q-4 -20 -24 -135.5t-27 -151.5 q-1 -7 -38.5 -200t-77 -397.5t-60.5 -309.5h-119z" />
<glyph unicode="N" horiz-adv-x="1304" d="M104 0l170 1399h119q27 -50 506 -1002l96 -194h6l146 1196h117l-172 -1399h-115l-504 1004l-100 206q-1 0 -4 -1t-4 -1l-146 -1208h-115z" />
<glyph unicode="O" horiz-adv-x="1343" d="M143 530q0 136 21 261t70 241.5t121.5 201.5t183.5 136t249 51q106 0 188 -29.5t135.5 -80.5t87.5 -124.5t48.5 -155.5t14.5 -179q0 -143 -25.5 -272.5t-78 -238t-127 -187.5t-177 -123.5t-223.5 -44.5q-255 0 -371.5 139.5t-116.5 404.5zM260 530q0 -225 89.5 -337.5 t281.5 -112.5q106 0 193 44t145 118t97.5 174t57 209t17.5 227q0 78 -8.5 143t-32.5 128.5t-62.5 107t-102 70t-147.5 26.5q-118 0 -211.5 -49t-152 -127.5t-96.5 -185t-53 -213.5t-15 -222z" />
<glyph unicode="P" horiz-adv-x="1038" d="M106 0l170 1401h418q167 0 264 -89t97 -261q0 -61 -13.5 -121t-47 -122t-83.5 -109t-129.5 -77t-177.5 -30h-309l-70 -592h-119zM307 686h303q44 0 87 10t87 36.5t77 66t54 103.5t21 145q0 126 -70.5 192t-187.5 66h-295z" />
<glyph unicode="Q" horiz-adv-x="1345" d="M141 530q0 136 21 260.5t70 240.5t122 201t184 136t248 51q106 0 188 -29.5t135.5 -80t87.5 -124t48.5 -155.5t14.5 -180q0 -297 -109.5 -521t-308.5 -304q197 -52 309 -84l-55 -111q-80 29 -231 82.5t-212 75.5q-4 0 -11.5 -1t-12.5 -1q-255 0 -371.5 139.5 t-116.5 404.5zM260 530q0 -227 88.5 -339.5t280.5 -112.5q106 0 193 44t145 118t97.5 174t57 209t17.5 227q0 78 -8.5 143t-32.5 128.5t-62.5 107t-102 70t-147.5 26.5q-99 0 -181 -33.5t-138 -93.5t-97.5 -136t-64.5 -167.5t-34 -181t-11 -183.5z" />
<glyph unicode="R" horiz-adv-x="1120" d="M106 0l170 1401h429q193 1 280 -97q76 -85 76 -220q0 -20 -2 -42q-10 -134 -84.5 -242.5t-204.5 -140.5q74 -26 112.5 -86.5t57.5 -154.5l76 -418h-119l-74 401q-26 128 -98 178t-188 50h-238l-78 -629h-115zM309 725h303q63 0 117 17t99.5 52t74.5 97t35 145q1 15 1 30 q1 112 -61 170q-70 66 -196 67h-301z" />
<glyph unicode="S" horiz-adv-x="1091" d="M70 88l45 90q174 -94 370 -94q80 0 148 15.5t126.5 48.5t92.5 93t35 142q0 62 -19.5 108t-62 78.5t-92 54.5t-125.5 46q-64 20 -107.5 35.5t-93.5 38.5t-81 48.5t-59 60t-41 79.5t-13 100q0 98 37.5 174t102.5 122.5t149 70.5t182 24q211 0 346 -73l-45 -93 q-151 64 -318 64q-65 0 -121.5 -15t-104.5 -45.5t-76.5 -85.5t-29.5 -128q0 -49 15.5 -87t39 -64t65.5 -48.5t81 -37t100 -32.5q41 -13 62 -20t60 -21.5t61 -25.5t54.5 -30t51.5 -37t41 -44t34 -54.5t20 -65t8 -77.5q0 -91 -30 -164t-80 -119.5t-119 -77t-142.5 -43.5 t-155.5 -13q-248 0 -411 102z" />
<glyph unicode="T" horiz-adv-x="1060" d="M143 1303l13 98h987l-13 -98h-436l-159 -1303h-113l158 1303h-437z" />
<glyph unicode="U" horiz-adv-x="1300" d="M162 498l110 903h115l-111 -901q-6 -46 -6 -86q0 -143 69 -227q88 -107 279 -107q184 0 292.5 109.5t133.5 310.5l111 901h117l-111 -903q-31 -240 -164.5 -376t-378.5 -136q-257 0 -372 134q-91 106 -91 280q0 46 7 98z" />
<glyph unicode="V" horiz-adv-x="1044" d="M147 1401h121l168 -1002l45 -274h8l111 278l416 998h123l-596 -1401h-144z" />
<glyph unicode="W" horiz-adv-x="1601" d="M143 1397h119q84 -804 94 -889l37 -375h4l86 246q31 89 158.5 457t196.5 561h123q1 -3 118 -842q11 -66 33 -232t25 -190h6q17 49 46 136t53.5 159.5t47.5 134.5q53 160 154.5 451.5t132.5 382.5h115q-267 -762 -498 -1397h-139q-6 42 -53 372.5t-70 508.5 q-24 197 -45 348h-8q-76 -218 -119 -355q-56 -154 -152.5 -435t-152.5 -439h-150q-76 644 -162 1397z" />
<glyph unicode="X" horiz-adv-x="1046" d="M-29 0l516 725q-59 126 -169.5 358.5t-149.5 315.5h131q99 -223 270 -590q58 83 198.5 282t215.5 308h129q-243 -341 -489 -678l344 -721h-129l-295 635l-443 -635h-129z" />
<glyph unicode="Y" horiz-adv-x="993" d="M147 1401h119l160 -416l94 -258h8l162 256l273 418h127l-512 -774l-76 -627h-123l76 618z" />
<glyph unicode="Z" horiz-adv-x="999" d="M-2 98l893 1202h-696l12 101h813l12 -98l-893 -1203h783l-13 -100h-903z" />
<glyph unicode="[" horiz-adv-x="485" d="M23 -328l217 1753h295l-11 -86h-190q-23 -178 -195 -1579h191q-6 -30 -11 -88h-296z" />
<glyph unicode="\" horiz-adv-x="638" d="M145 1432h80l332 -1487h-84z" />
<glyph unicode="]" horiz-adv-x="485" d="M-18 -328q3 16 10 88h190l193 1579h-191l11 86h299l-215 -1753h-297z" />
<glyph unicode="^" horiz-adv-x="854" d="M96 801l412 598h80l258 -598h-92l-217 502l-340 -502h-101z" />
<glyph unicode="_" horiz-adv-x="993" d="M-82 -254l8 74h992l-9 -74h-991z" />
<glyph unicode="`" horiz-adv-x="962" d="M371 1384l96 76l207 -311l-60 -41z" />
<glyph unicode="a" horiz-adv-x="1005" d="M78 338q0 97 18 190.5t57 181t95.5 154t140.5 106.5t184 40q127 0 256 -52l17 50l82 -4q-19 -129 -62 -460t-55 -454l125 4l8 -69q-79 -35 -149 -35q-88 0 -88 76q0 34 4 71l-2 4q-186 -153 -355 -153q-123 0 -199.5 91.5t-76.5 258.5zM195 356q0 -141 53 -208.5 t139 -67.5q144 0 332 158l86 628q-121 52 -236 52q-157 0 -265.5 -153.5t-108.5 -408.5z" />
<glyph unicode="b" horiz-adv-x="1001" d="M80 78l172 1395h110q-6 -46 -22.5 -193t-30 -249t-26.5 -169l6 -8q198 158 354 158q125 0 202 -90.5t77 -259.5v-10q0 -94 -18 -184q-18 -95 -58.5 -182.5t-99 -153t-143.5 -105t-187 -39.5q-176 0 -328 73zM197 127q99 -47 223 -47q76 0 145.5 37.5t123.5 107.5 t86 179.5t32 242.5q0 139 -54.5 206t-140.5 67q-135 0 -333 -162z" />
<glyph unicode="c" horiz-adv-x="858" d="M80 354q0 54 5 109t19.5 121.5t37 125.5t61.5 116t89 97.5t123 65.5t160 25q159 0 271 -64l-37 -76q-109 50 -242 50q-119 0 -205 -76.5t-127.5 -201t-41.5 -281.5q0 -289 245 -289q129 0 297 65l27 -71q-65 -37 -158 -60.5t-182 -23.5q-339 0 -342 368z" />
<glyph unicode="d" horiz-adv-x="974" d="M80 338v10q0 91 16 180q18 94 57.5 181.5t96 154t140.5 106.5t185 40q119 0 240 -45l62 489h108l-182 -1454h-107l17 137l-4 4q-186 -153 -353 -153q-125 0 -200.5 91t-75.5 259zM195 356q0 -141 53 -208.5t139 -67.5q146 0 334 158l82 628q-115 52 -234 52 q-156 0 -265 -153.5t-109 -408.5z" />
<glyph unicode="e" horiz-adv-x="892" d="M78 369q0 68 10.5 137.5t32.5 144.5t62 139t93.5 115.5t132 81t173.5 29.5q130 0 197 -68t67 -168q0 -76 -34 -136.5t-92 -100t-143.5 -67.5t-177.5 -42.5t-206 -21.5q-3 -37 -3 -62q0 -53 10.5 -97.5t35.5 -87t75.5 -67t122.5 -24.5q146 0 299 69l27 -71 q-142 -84 -348 -84q-97 0 -164.5 29.5t-103.5 84.5t-51 119.5t-15 147.5zM199 489q536 25 536 277q0 74 -42 116t-128 42q-103 0 -182.5 -58.5t-124.5 -155t-59 -221.5z" />
<glyph unicode="f" horiz-adv-x="622" d="M-276 -418l22 80q91 -16 133 -16q117 0 181.5 99t89.5 304q62 503 96 858h-164l8 62q9 2 47.5 9t72.5 13t48 10l12 89q28 202 105.5 299.5t238.5 97.5q93 0 170 -21q-3 -11 -10 -43.5t-10 -42.5q-79 15 -137 15q-42 0 -73.5 -7t-62.5 -28.5t-53 -58.5t-39.5 -99 t-27.5 -149q0 -26 -6 -62h280l-10 -84h-281l-84 -743q-8 -63 -13.5 -104.5t-16 -98t-21 -94.5t-26.5 -84t-35 -75.5t-45.5 -60t-58 -48t-72 -28.5t-88.5 -11q-74 0 -170 22z" />
<glyph unicode="g" horiz-adv-x="1003" d="M61 -383l37 88q113 -55 250 -55q60 0 108 12t82.5 30.5t61.5 51t43.5 64t30 79.5t20.5 88t15 97q2 22 10 63q-1 1 -2.5 2t-2.5 2t-1 2q-189 -153 -353 -153q-124 0 -201 89t-77 259v2q0 99 19 193.5t59.5 182t98.5 153t143 104.5t186 39q177 0 323 -76q1 -2 4 -5 t4.5 -5.5t2.5 -5.5l-119 -918q-7 -49 -14.5 -86.5t-23.5 -86.5t-37.5 -85t-57.5 -73.5t-81 -61t-110.5 -38.5t-144.5 -15q-135 0 -273 63zM197 350q0 -141 54 -207.5t140 -66.5q145 0 336 164q67 523 82 628q-108 50 -225 50q-76 0 -145.5 -38t-123.5 -108.5t-86 -179.5 t-32 -242z" />
<glyph unicode="h" horiz-adv-x="980" d="M72 0q20 154 89.5 738t88.5 737h110q-8 -62 -25.5 -208.5t-32 -264t-23.5 -158.5l6 -4q103 85 207 130.5t186 45.5q219 0 219 -205q0 -45 -4 -68l-82 -743h-111l78 696q6 38 6 72q0 76 -33.5 115t-109.5 39q-160 0 -369 -183q-50 -438 -88 -739h-112z" />
<glyph unicode="i" horiz-adv-x="438" d="M104 0l121 995h113q-19 -146 -123 -995h-111zM231 1245q0 39 26 66.5t60 27.5q31 0 51.5 -21t20.5 -52q0 -38 -25 -65t-63 -27q-29 0 -49.5 20t-20.5 51z" />
<glyph unicode="j" horiz-adv-x="479" d="M-135 -356q59 21 103.5 46.5t74.5 58.5t50 64.5t33 77.5t20 82.5t14 94.5l106 927h111q-8 -79 -55.5 -478.5t-51.5 -424.5q-11 -90 -24.5 -153.5t-40.5 -129t-66.5 -109.5t-102 -80.5t-147.5 -57.5zM270 1245q0 39 25 66.5t59 27.5q31 0 52.5 -21t21.5 -52q0 -38 -25 -65 t-63 -27q-31 0 -50.5 20t-19.5 51z" />
<glyph unicode="k" horiz-adv-x="856" d="M78 0l176 1452h111l-78 -645q-4 -29 -10.5 -80.5t-13 -97t-13.5 -88.5l8 -2q41 37 194 178.5t306 279.5h129q-16 -15 -434 -401l47 -61l295 -535h-121q-35 67 -291 539l-147 -133l-50 -406h-108z" />
<glyph unicode="l" horiz-adv-x="436" d="M100 66q0 11 4 47l168 1360h109q-7 -68 -45 -376.5t-78.5 -637.5t-44.5 -363l133 4l8 -77q-77 -39 -161 -39q-49 0 -71 20t-22 62z" />
<glyph unicode="m" horiz-adv-x="1550" d="M72 0q59 456 121 995h106q-8 -93 -20 -147l6 -4q217 172 360 172q204 0 219 -185q102 89 203 137t176 48q122 0 170.5 -56.5t48.5 -154.5q0 -22 -4 -62l-84 -743h-108l82 711q4 25 4 65q0 144 -146 144q-148 0 -346 -179l-6 -67l-74 -674h-110l82 709q0 2 3 28.5t3 38.5 q0 71 -34.5 107.5t-115.5 36.5q-136 0 -336 -181q-15 -124 -88 -739h-112z" />
<glyph unicode="n" horiz-adv-x="985" d="M74 0q122 983 123 997h106q-17 -136 -20 -149q1 -1 3 -2q3 -1 3 -2q219 174 385 174q223 0 223 -215q0 -20 -4 -60l-82 -743h-111l82 717q4 20 4 59q0 34 -8 53q-9 48 -43.5 70.5t-99.5 22.5q-153 0 -359 -183l-92 -739h-110z" />
<glyph unicode="o" horiz-adv-x="976" d="M78 373q0 74 11 147t34 146t61.5 135t89.5 110t122.5 75.5t156.5 27.5q76 0 136.5 -21.5t100 -58.5t65.5 -88.5t37 -108.5t11 -123q0 -84 -13 -165.5t-47 -167t-86 -149.5t-137 -105t-192 -41q-350 0 -350 387zM190 360q0 -286 248 -286q83 0 147 38.5t101.5 95.5 t61.5 132.5t32 141t8 128.5q0 64 -11 116t-36.5 98t-73.5 72t-116 26q-82 0 -146.5 -38t-104 -96.5t-65 -135.5t-35.5 -149t-10 -143z" />
<glyph unicode="p" horiz-adv-x="993" d="M18 -430l179 1425h106l-18 -135l6 -6q183 154 352 154q124 0 200.5 -91.5t76.5 -257.5q0 -97 -18 -191t-57 -182t-95.5 -154t-140.5 -106t-185 -40q-114 0 -240 47q-6 -59 -29.5 -241t-27.5 -222h-109zM197 129q111 -49 233 -49q156 0 264.5 152.5t108.5 408.5 q0 140 -53.5 208.5t-139.5 68.5q-142 0 -334 -158z" />
<glyph unicode="q" horiz-adv-x="1003" d="M76 336q0 124 31 240.5t91 215t160 158.5t226 60q176 0 325 -76l11 -14l-166 -1350h-113q42 359 76 565l-6 6q-194 -157 -357 -157q-123 0 -200 90.5t-78 261.5zM193 350q0 -141 53.5 -206.5t140.5 -65.5q146 0 334 162l82 628q-100 50 -223 50q-76 0 -145.5 -38 t-123.5 -108.5t-86 -179.5t-32 -242z" />
<glyph unicode="r" horiz-adv-x="608" d="M94 0q13 109 55 455t64 542h102q-16 -142 -22 -180h6q60 99 117.5 146t124.5 47q88 0 131 -66l-39 -76q-50 17 -92 17q-158 0 -254 -213q-24 -168 -84 -672h-109z" />
<glyph unicode="s" horiz-adv-x="821" d="M20 63l39 76q128 -65 283 -65q57 0 106 10.5t90.5 32.5t65 61.5t23.5 91.5q0 34 -12.5 61.5t-30.5 46.5t-51 38t-61.5 30.5t-74.5 28.5q-50 19 -81 32.5t-71 37t-63 48t-39 61t-16 79.5q0 73 30.5 128.5t82.5 87.5t113.5 47.5t131.5 15.5q159 -5 265 -64l-39 -78 q-120 52 -230 52q-44 0 -84.5 -9.5t-77.5 -29.5t-59 -58t-22 -88q0 -28 14 -52t31 -40t50 -33.5t53 -26t58 -22.5q41 -15 59 -22t55.5 -23.5t56 -29.5t45.5 -35t40 -44.5t23 -53.5t10 -66q0 -78 -31.5 -137.5t-86.5 -94.5t-124 -52t-151 -17q-90 0 -177.5 19.5t-142.5 55.5z " />
<glyph unicode="t" horiz-adv-x="667" d="M115 913l6 64q21 4 71 14t76 15q9 31 30.5 98t31.5 104l71 11q-10 -107 -26 -222h287l-11 -84h-284l-84 -667q-2 -16 -2 -47q0 -58 24.5 -86.5t91.5 -28.5q87 0 199 33l18 -76q-53 -22 -124 -35.5t-123 -13.5q-98 0 -148.5 43t-50.5 139q0 5 1 19.5t1 19.5l84 700h-139z " />
<glyph unicode="u" horiz-adv-x="944" d="M84 193q0 19 4 59l84 745h111l-84 -718q-2 -20 -2 -60q0 -73 32.5 -108t114.5 -35q153 0 354 180l93 741h106q-102 -822 -117 -997h-104l18 147q-5 5 -6 5q-216 -172 -383 -172q-221 0 -221 213z" />
<glyph unicode="v" horiz-adv-x="845" d="M68 995h114q16 -81 55 -262.5t58 -279.5q8 -37 67 -353h9q80 196 157 363l246 565l100 -37q-46 -97 -229.5 -500.5t-224.5 -490.5h-137q-34 163 -106.5 494t-108.5 501z" />
<glyph unicode="w" horiz-adv-x="1345" d="M68 997h108l78 -575l41 -309h8l125 323l225 561h111l110 -606l48 -278h8l104 286l242 631l98 -33l-395 -997h-129l-105 559l-53 297h-6l-108 -281l-232 -575h-131z" />
<glyph unicode="x" horiz-adv-x="835" d="M-25 6q40 54 195 257.5t195 258.5l-236 475h123q21 -43 93.5 -201.5t92.5 -201.5l310 442q10 -4 44.5 -24.5t45.5 -28.5q-250 -324 -346 -455l264 -528h-123l-213 455q-38 -53 -178 -252.5t-179 -253.5z" />
<glyph unicode="y" horiz-adv-x="837" d="M-115 -408q15 44 27 84q101 -28 154 -28q55 0 99 31t83 120q13 29 43 98t47 105h-59q-67 352 -195 993h111q10 -49 108 -583q6 -36 32.5 -173t29.5 -159h10l149 352l256 592q15 -4 48 -14.5t51 -14.5q-172 -397 -527 -1204q-50 -113 -115 -173t-161 -60q-2 0 -18.5 1 t-25 1.5t-28 3t-35 5.5t-38.5 9t-46 14z" />
<glyph unicode="z" horiz-adv-x="835" d="M-6 72q215 257 692 833l-2 2h-526l12 88h631l20 -77l-684 -824l4 -4l600 -2q-2 -29 -10 -88h-723q-3 12 -7 36t-7 36z" />
<glyph unicode="{" horiz-adv-x="489" d="M78 571l10 72q81 20 114.5 76t47.5 158l49 366q7 48 25 88t59 70.5t98 30.5h82q0 -7 -5 -43t-5 -43h-47q-58 0 -79.5 -33.5t-31.5 -108.5l-45 -330q-6 -58 -20.5 -110t-47 -100.5t-77.5 -63.5q51 -26 70.5 -67.5t19.5 -100.5q0 -43 -34 -322.5t-34 -281.5 q2 -37 17.5 -58.5t54.5 -21.5h57l-10 -86h-74q-83 0 -117 40.5t-34 111.5q0 17 4 57l59 475q6 38 6 72q0 128 -112 153z" />
<glyph unicode="|" horiz-adv-x="446" d="M197 -281v1711h86v-1711h-86z" />
<glyph unicode="}" horiz-adv-x="489" d="M-41 -336l12 86h47q58 0 80 34t31 107l53 439q11 94 47 172.5t101 99.5q-92 47 -92 170q0 40 6 84q3 15 24 168t23 170q6 69 6 74q-2 38 -18 59t-56 21h-57l10 86h60q92 0 129.5 -39t37.5 -113q0 -28 -6 -55l-49 -363q-6 -38 -6 -73q0 -134 115 -158l-11 -72 q-84 -20 -115.5 -74.5t-45.5 -158.5l-60 -473q-9 -77 -54.5 -134t-127.5 -57h-84z" />
<glyph unicode="~" d="M158 543q81 147 194 147q64 0 229.5 -43t215.5 -43l123 88l41 -37q-77 -147 -193 -147q-78 0 -231 43t-205 43l-131 -90z" />
<glyph unicode="&#xa1;" horiz-adv-x="411" d="M49 -426l82 637l70 444h71l-39 -444l-71 -637h-113zM186 913q0 40 30.5 70.5t68.5 30.5q32 0 52.5 -22t20.5 -56q0 -40 -28.5 -69t-69.5 -29q-32 0 -53 22t-21 53z" />
<glyph unicode="&#xa2;" d="M178 352q0 51 4.5 102t17 114t32 119t52.5 111.5t76 97.5t105.5 72.5t136.5 39.5q21 156 23 174h69l-20 -170h2q153 0 268 -64l-37 -76q-109 50 -241 50h-4l-105 -848q122 3 274 65q2 -5 13 -30.5t16 -40.5q-60 -33 -144.5 -55t-168.5 -25l-21 -162h-69l18 162 q-297 19 -297 364zM289 362q0 -258 198 -284l103 835q-97 -23 -166 -102t-102 -194t-33 -255z" />
<glyph unicode="&#xa3;" horiz-adv-x="1056" d="M51 0l15 92q153 64 204 371l33 188h-137l8 82h143q8 66 37 238q63 399 406 399q82 0 165.5 -16.5t137.5 -42.5l-43 -90q-119 51 -262 51q-62 0 -109.5 -15.5t-77.5 -40.5t-52.5 -67t-34.5 -84t-23 -102l-39 -230h387l-8 -82h-393l-31 -190q-20 -121 -60.5 -221.5 t-103.5 -147.5h698l-10 -92h-850z" />
<glyph unicode="&#xa4;" horiz-adv-x="1064" d="M141 262l131 127q-84 102 -84 236q0 143 84 239l-129 131l58 60l131 -129q105 84 235 84q119 0 234 -84l129 129l61 -62l-135 -127q84 -107 84 -237q0 -129 -82 -240q43 -43 133 -123l-61 -65l-131 129q-99 -82 -232 -82q-131 0 -233 82l-131 -131zM274 627 q0 -123 85.5 -209t205.5 -86q118 0 203.5 86.5t85.5 208.5q0 120 -85.5 206.5t-203.5 86.5q-120 0 -205.5 -86.5t-85.5 -206.5z" />
<glyph unicode="&#xa5;" horiz-adv-x="1056" d="M135 420l10 65h781l-11 -65h-335l-52 -420h-112l51 420h-332zM156 582l8 67h301q-12 34 -124 334t-138 375h114q4 -12 144 -416l92 -262h4q17 26 81 133.5t77 128.5q5 12 63.5 108.5t121.5 199t67 108.5h118q-40 -65 -223 -355t-223 -354h305l-8 -67h-780z" />
<glyph unicode="&#xa6;" horiz-adv-x="446" d="M227 -281v791h84v-791h-84zM227 713v717h84v-717h-84z" />
<glyph unicode="&#xa7;" horiz-adv-x="905" d="M70 -147l28 81q135 -47 269 -47q130 0 215.5 63.5t85.5 178.5q0 63 -43.5 108t-126.5 89q-27 15 -78.5 39.5t-83.5 40t-73 43t-64.5 53t-40.5 63.5t-17 82q0 173 189 301q-105 82 -105 199q0 78 30.5 140t83 100t118 57.5t139.5 19.5q144 0 276 -47l-32 -86 q-124 41 -254 41q-47 0 -91 -12t-82.5 -36t-61.5 -67t-23 -100q0 -28 13 -54t29 -44.5t49 -40.5t54 -34t64 -34t61 -32q112 -61 164.5 -118.5t52.5 -135.5q0 -148 -176 -299q131 -92 131 -232q0 -83 -35 -148t-95 -104.5t-132.5 -59.5t-153.5 -20q-151 0 -284 52zM244 676 q0 -43 19 -76.5t56 -59.5t73 -44.5t90.5 -44t88.5 -45.5q71 62 106.5 124.5t35.5 108.5q0 32 -14.5 60.5t-35.5 50t-56.5 45t-64 38.5t-73.5 38.5t-70 37.5q-155 -108 -155 -233z" />
<glyph unicode="&#xa8;" horiz-adv-x="968" d="M330 1239q1 33 26.5 58.5t55.5 25.5q32 0 51 -19t18 -51q0 -35 -25.5 -59.5t-60.5 -24.5q-29 0 -47 19.5t-18 50.5zM655 1239q1 33 26.5 58.5t55.5 25.5q31 0 50.5 -19t19.5 -51q0 -35 -26 -59.5t-60 -24.5q-30 0 -48 19.5t-18 50.5z" />
<glyph unicode="&#xa9;" horiz-adv-x="1695" d="M152 684q0 148 59 284t158.5 234t237 156.5t288.5 58.5q150 0 288 -58.5t238 -156.5t159.5 -234t59.5 -284q0 -200 -100.5 -370t-272 -268.5t-372.5 -98.5q-151 0 -288.5 58t-237 157t-158.5 235.5t-59 286.5zM221 684q0 -181 90.5 -334.5t245.5 -242.5t338 -89 q138 0 263 52.5t215 141.5t143 212.5t53 259.5t-53 259.5t-143 212.5t-215 141.5t-263 52.5q-183 0 -338 -89t-245.5 -242.5t-90.5 -334.5zM483 668q0 68 11.5 135.5t42 140t77.5 127t125.5 90t178.5 35.5q140 0 247 -39l-20 -76q-102 37 -223 37q-168 0 -255 -120.5 t-87 -331.5q0 -75 9 -136t32 -118t61 -95t99.5 -61t142.5 -23q132 0 241 35l19 -69q-49 -20 -127 -32.5t-150 -12.5q-424 0 -424 514z" />
<glyph unicode="&#xaa;" horiz-adv-x="706" d="M92 772q0 64 12.5 125.5t40 119t67 100.5t98 69t128.5 26q77 0 168 -32l12 28q47 0 72 -2q-46 -302 -80 -585l84 4l6 -60q-63 -24 -112 -24q-70 0 -70 59q0 5 1 14t1 13q-122 -90 -231 -90q-90 0 -143.5 60.5t-53.5 174.5zM186 782q0 -84 36 -126t91 -42q94 0 215 99 l56 395q-69 27 -150 27q-102 0 -175 -96t-73 -257z" />
<glyph unicode="&#xab;" horiz-adv-x="800" d="M117 340l8 74l317 309l45 -41l-251 -305l178 -305l-56 -39zM369 340l8 74l317 309l45 -41l-252 -305l179 -305l-54 -39z" />
<glyph unicode="&#xac;" d="M176 565l12 88h744l-53 -434h-91l43 346h-655z" />
<glyph unicode="&#xad;" horiz-adv-x="686" d="M109 477l14 103h479l-12 -103h-481z" />
<glyph unicode="&#xae;" horiz-adv-x="1173" d="M162 969q0 131 65 241.5t177 175t245 64.5q98 0 188 -38t155 -102.5t104 -153.5t39 -187q0 -131 -65.5 -241t-177.5 -173t-243 -63q-133 0 -245 62t-177 172t-65 243zM221 969q0 -177 123.5 -299.5t304.5 -122.5q179 0 302.5 121.5t123.5 300.5q0 115 -56.5 213 t-154.5 155.5t-215 57.5q-177 0 -302.5 -125.5t-125.5 -300.5zM481 676v596h193q85 0 134.5 -41t49.5 -123q0 -48 -28.5 -94.5t-88.5 -67.5l125 -270h-75l-119 262h-119v-262h-72zM553 993h119q114 0 114 113q0 58 -32 84.5t-82 26.5h-119v-224z" />
<glyph unicode="&#xaf;" horiz-adv-x="968" d="M266 1217l13 96h612l-10 -96h-615z" />
<glyph unicode="&#xb0;" horiz-adv-x="690" d="M131 1118q2 103 76.5 177.5t177.5 74.5t173.5 -74.5t70.5 -177.5t-73 -174.5t-177 -71.5q-115 0 -182.5 69.5t-65.5 176.5zM205 1114q-1 -70 49 -121t121 -51t125 51t55 121q0 73 -53 126.5t-123 53.5q-72 0 -123 -53t-51 -127z" />
<glyph unicode="&#xb1;" d="M106 18l11 84h751l-10 -84h-752zM176 561l12 92h326l41 328h90l-41 -328h326l-10 -92h-326l-43 -338h-88l41 338h-328z" />
<glyph unicode="&#xb2;" horiz-adv-x="745" d="M70 729l8 70q218 180 258 215q201 179 232 289q7 23 7 45q0 120 -153 120q-105 0 -229 -71l-41 65q143 90 286 90q107 0 173.5 -47.5t66.5 -140.5q0 -54 -26.5 -112t-66.5 -108.5t-101 -108t-115.5 -102.5t-124.5 -101l-27 -21h424l-6 -82h-565z" />
<glyph unicode="&#xb3;" horiz-adv-x="745" d="M61 768l29 72q115 -41 219 -41t179 50t75 130q0 75 -55.5 115.5t-149.5 40.5q-30 0 -77 -9q0 15 -11 70q151 26 223 76t72 106q0 43 -36.5 70t-116.5 27q-94 0 -228 -54l-28 64q132 69 266 69q122 0 182 -45.5t60 -115.5q0 -62 -43.5 -120t-124.5 -83v-8 q77 -19 121.5 -71t44.5 -122q0 -115 -97 -192.5t-252 -77.5q-156 0 -252 49z" />
<glyph unicode="&#xb4;" horiz-adv-x="966" d="M432 1163l258 320l88 -84l-289 -283z" />
<glyph unicode="&#xb6;" horiz-adv-x="974" d="M178 1030q0 168 109.5 278.5t273.5 110.5h357l-220 -1790h-86l207 1702h-145q-103 -818 -209 -1702h-88l131 1090q-150 2 -240 85.5t-90 225.5z" />
<glyph unicode="&#xb7;" horiz-adv-x="358" d="M115 569q0 38 30.5 67.5t67.5 29.5q32 0 54 -22t22 -54q0 -41 -30 -73t-66 -32q-33 0 -55.5 25t-22.5 59z" />
<glyph unicode="&#xb8;" horiz-adv-x="970" d="M256 -494l6 58q127 9 194.5 49t67.5 98q0 26 -15.5 43t-45 25t-60 11t-73.5 3l-17 35q109 125 203 225q8 -7 24.5 -18.5t20.5 -14.5q-44 -46 -143 -157q207 -7 207 -137q0 -92 -95.5 -156t-273.5 -64z" />
<glyph unicode="&#xb9;" horiz-adv-x="745" d="M219 1481l234 61h88l-97 -811h-96l84 713l-211 -31z" />
<glyph unicode="&#xba;" horiz-adv-x="669" d="M70 803q-1 58 9 114.5t34.5 112t61 97.5t94.5 68t130 26q127 0 184.5 -75t59.5 -194q1 -55 -7.5 -108t-32 -109t-59 -97.5t-95 -68t-134.5 -26.5q-245 0 -245 260zM160 791q0 -175 164 -175q68 0 116 34.5t70 90t31 107.5t8 104q0 197 -154 197q-56 0 -99.5 -24.5 t-68.5 -61.5t-41 -87t-21.5 -95t-4.5 -90z" />
<glyph unicode="&#xbb;" horiz-adv-x="800" d="M66 72l251 305l-174 305l54 41l241 -309l-6 -74l-323 -307zM317 72l252 305l-176 305l56 41l241 -309l-8 -74l-322 -307z" />
<glyph unicode="&#xbc;" horiz-adv-x="1617" d="M256 1296l233 62h89l-97 -811h-96l84 713l-211 -31zM375 -47l760 1479h77l-751 -1479h-86zM801 227l6 68q35 39 481 518h90q-33 -256 -61 -510h125l-8 -76h-127l-27 -227h-94l28 227h-413zM918 303h303l49 381l-8 -2q-102 -110 -344 -379z" />
<glyph unicode="&#xbd;" horiz-adv-x="1617" d="M219 1296l234 62h88l-97 -811h-96l84 713l-211 -31zM332 -47l760 1479h77l-751 -1479h-86zM872 0l7 70q226 182 297 247q199 187 202 299q0 62 -41 91.5t-112 29.5q-106 0 -230 -71l-41 67q144 90 287 90q107 0 172.5 -48t65.5 -144q0 -31 -10 -64.5t-23 -62t-41 -65 t-47.5 -61t-61 -63.5t-63.5 -59.5t-72 -61.5t-69 -56.5t-72 -57.5h426l-10 -80h-564z" />
<glyph unicode="&#xbe;" horiz-adv-x="1617" d="M135 584l29 71q115 -41 219 -41t179 50t75 131q0 75 -55.5 115t-149.5 40q-37 0 -78 -8q0 20 -10 70q151 26 223 76t72 106q0 43 -37 69.5t-117 26.5q-95 0 -227 -53l-29 63q134 70 267 70q122 0 181.5 -46t59.5 -116q0 -62 -43.5 -119.5t-124.5 -82.5v-9 q77 -19 121.5 -70.5t44.5 -121.5q0 -115 -96.5 -192.5t-251.5 -77.5q-156 0 -252 49zM494 -47l759 1479h78l-751 -1479h-86zM924 227l6 68q35 39 481 518h90q-33 -256 -61 -510h125l-9 -76h-126l-27 -227h-94l28 227h-413zM1040 303h303l50 381l-9 -2q-101 -110 -344 -379z " />
<glyph unicode="&#xbf;" horiz-adv-x="843" d="M0 -199q0 53 19 102t56.5 93.5t74 78t90.5 75.5q77 58 124.5 100t88 90t58 96t17.5 103q0 22 -4 100l94 16q7 -72 7 -106q0 -135 -66 -231t-240 -230q-47 -35 -68.5 -52t-54.5 -47.5t-48 -52.5t-27 -53t-12 -63q0 -86 63 -126t170 -40q144 0 324 55q13 -62 20 -88 q-178 -63 -358 -63q-328 0 -328 243zM485 913q0 40 29.5 69.5t65.5 29.5q31 0 52 -22t21 -54q0 -38 -27.5 -67t-64.5 -29q-33 0 -54.5 21t-21.5 52z" />
<glyph unicode="&#xc0;" horiz-adv-x="1095" d="M-20 0q177 409 612 1399h151q156 -828 269 -1399h-121q-8 42 -21.5 119t-25.5 141.5t-23 120.5h-559q-104 -249 -162 -381h-120zM305 477h498q-8 53 -70.5 407t-73.5 410h-6q-23 -52 -144 -339t-204 -478zM414 1688l73 98l250 -260l-43 -53z" />
<glyph unicode="&#xc1;" horiz-adv-x="1095" d="M-20 0q177 409 612 1399h151q156 -828 269 -1399h-121q-8 42 -21.5 119t-25.5 141.5t-23 120.5h-559q-104 -249 -162 -381h-120zM305 477h498q-8 53 -70.5 407t-73.5 410h-6q-23 -52 -144 -339t-204 -478zM614 1522l310 262l59 -90l-332 -224z" />
<glyph unicode="&#xc2;" horiz-adv-x="1095" d="M-20 0q177 409 612 1399h151q156 -828 269 -1399h-121q-8 42 -21.5 119t-25.5 141.5t-23 120.5h-559q-104 -249 -162 -381h-120zM305 477h498q-8 53 -70.5 407t-73.5 410h-6q-23 -52 -144 -339t-204 -478zM344 1487l311 274h86l248 -272l-39 -43l-262 205l-313 -207z" />
<glyph unicode="&#xc3;" horiz-adv-x="1095" d="M-20 0q177 409 612 1399h151q156 -828 269 -1399h-121q-8 42 -21.5 119t-25.5 141.5t-23 120.5h-559q-104 -249 -162 -381h-120zM305 477h498q-8 53 -70.5 407t-73.5 410h-6q-23 -52 -144 -339t-204 -478zM377 1538q29 64 75.5 100.5t98.5 36.5q45 0 143 -38t135 -38 l113 80l35 -32q-28 -60 -72 -99t-94 -39q-51 0 -148.5 39t-130.5 39l-116 -80z" />
<glyph unicode="&#xc4;" horiz-adv-x="1095" d="M-20 0q177 409 612 1399h151q156 -828 269 -1399h-121q-8 42 -21.5 119t-25.5 141.5t-23 120.5h-559q-104 -249 -162 -381h-120zM305 477h498q-8 53 -70.5 407t-73.5 410h-6q-23 -52 -144 -339t-204 -478zM440 1561q0 33 26 57t56 24q31 0 50 -18t18 -47 q-1 -35 -26 -59.5t-58 -24.5q-29 0 -47.5 19.5t-18.5 48.5zM764 1559q1 35 25 59t55 24q32 0 50.5 -17.5t18.5 -47.5q-2 -35 -26.5 -59.5t-59.5 -24.5q-29 0 -46 18t-17 48z" />
<glyph unicode="&#xc5;" horiz-adv-x="1095" d="M-20 0q177 409 612 1399h151q156 -828 269 -1399h-121q-8 42 -21.5 119t-25.5 141.5t-23 120.5h-559q-104 -249 -162 -381h-120zM305 477h498q-8 53 -70.5 407t-73.5 410h-6q-23 -52 -144 -339t-204 -478zM496 1628q6 83 67.5 144t151.5 61q78 0 125 -54t39 -132 q-4 -86 -66 -144.5t-147 -58.5q-81 0 -128.5 53.5t-41.5 130.5zM567 1624q-3 -53 25.5 -86t83.5 -33q54 0 92.5 39.5t42.5 100.5q5 52 -23.5 86t-80.5 34q-59 0 -97 -40t-43 -101z" />
<glyph unicode="&#xc6;" horiz-adv-x="1753" d="M-41 0q336 505 936 1397h791q0 -15 -1.5 -45t-1.5 -47h-618l-31 -521h531l-4 -92h-531q-18 -298 -33 -600h658l-4 -92h-777l25 412h-545l-272 -412h-123zM416 506h485q21 282 39 561l16 233h-8l-239 -358q-222 -326 -293 -436z" />
<glyph unicode="&#xc7;" horiz-adv-x="1132" d="M143 532q0 69 7.5 142.5t27.5 162.5t51.5 169t84 157.5t119.5 133.5t164 90t212 34q192 0 332 -55l-33 -90q-134 47 -299 47q-178 0 -302 -102t-182.5 -279t-58.5 -416q0 -100 17.5 -175t59.5 -138t121 -96t193 -33q66 0 161 11.5t173 35.5l23 -88q-146 -53 -365 -57 q-27 -28 -125 -140q207 -7 207 -137q0 -92 -95 -155.5t-274 -63.5l7 57q127 9 194.5 49.5t67.5 98.5q0 26 -15.5 43t-45.5 25t-60.5 11t-73.5 3l-16 35q72 87 155 176q-229 13 -330.5 152t-101.5 392z" />
<glyph unicode="&#xc8;" horiz-adv-x="1036" d="M106 0l170 1399h768l-10 -94h-653l-64 -517h572l-12 -94h-572l-72 -598h703l-8 -96h-822zM483 1688l74 98l250 -260l-43 -53z" />
<glyph unicode="&#xc9;" horiz-adv-x="1036" d="M106 0l170 1399h768l-10 -94h-653l-64 -517h572l-12 -94h-572l-72 -598h703l-8 -96h-822zM569 1522l310 262l59 -90l-332 -224z" />
<glyph unicode="&#xca;" horiz-adv-x="1036" d="M106 0l170 1399h768l-10 -94h-653l-64 -517h572l-12 -94h-572l-72 -598h703l-8 -96h-822zM340 1499l311 275h86l248 -273l-39 -43l-262 205l-313 -207z" />
<glyph unicode="&#xcb;" horiz-adv-x="1036" d="M106 0l170 1399h768l-10 -94h-653l-64 -517h572l-12 -94h-572l-72 -598h703l-8 -96h-822zM436 1567q0 33 26 57.5t56 24.5q31 0 50 -18.5t18 -47.5q-1 -35 -26 -59.5t-58 -24.5q-29 0 -47.5 19.5t-18.5 48.5zM760 1565q1 35 25 59.5t55 24.5q32 0 50.5 -18t18.5 -48 q-2 -35 -26.5 -59.5t-59.5 -24.5q-29 0 -46 18t-17 48z" />
<glyph unicode="&#xcc;" horiz-adv-x="473" d="M104 1688l74 98l250 -260l-43 -53zM125 0l172 1401h117l-172 -1401h-117z" />
<glyph unicode="&#xcd;" horiz-adv-x="473" d="M125 0l172 1401h117l-172 -1401h-117zM311 1522l310 262l59 -90l-332 -224z" />
<glyph unicode="&#xce;" horiz-adv-x="473" d="M37 1489l311 274h86l248 -272l-39 -43l-262 205l-313 -207zM125 0l172 1401h117l-172 -1401h-117z" />
<glyph unicode="&#xcf;" horiz-adv-x="473" d="M125 0l172 1401h117l-172 -1401h-117zM145 1569q0 33 26 57.5t56 24.5q31 0 50 -18.5t18 -47.5q-1 -35 -26 -59.5t-58 -24.5q-29 0 -47.5 19.5t-18.5 48.5zM469 1567q1 35 25 59.5t55 24.5q32 0 50.5 -18t18.5 -48q-2 -35 -26.5 -59.5t-59.5 -24.5q-29 0 -46 18t-17 48z " />
<glyph unicode="&#xd0;" horiz-adv-x="1236" d="M63 684l11 74h123l79 643h412q108 0 190 -27.5t134 -75t84.5 -118t45.5 -148.5t13 -174q0 -142 -20.5 -264.5t-69.5 -233.5t-123 -189.5t-186.5 -124.5t-255.5 -46h-394l82 684h-125zM236 98h260q27 0 51.5 1.5t66.5 9.5t77.5 21.5t80 41t80 64t70.5 93.5t59 128 t38.5 169t14.5 214q0 93 -15 167.5t-37 122t-57 82.5t-66 52.5t-73.5 27t-69.5 11.5t-63 2h-270l-66 -547h351l-11 -74h-350z" />
<glyph unicode="&#xd1;" horiz-adv-x="1304" d="M104 0l170 1399h119q27 -50 506 -1002l96 -194h6l146 1196h117l-172 -1399h-115l-504 1004l-100 206q-1 0 -4 -1t-4 -1l-146 -1208h-115zM514 1571q29 64 75.5 100.5t98.5 36.5q45 0 143.5 -38t135.5 -38l112 80l35 -33q-28 -60 -72 -98.5t-94 -38.5q-51 0 -148 39 t-130 39l-117 -80z" />
<glyph unicode="&#xd2;" horiz-adv-x="1343" d="M143 530q0 136 21 261t70 241.5t121.5 201.5t183.5 136t249 51q106 0 188 -29.5t135.5 -80.5t87.5 -124.5t48.5 -155.5t14.5 -179q0 -143 -25.5 -272.5t-78 -238t-127 -187.5t-177 -123.5t-223.5 -44.5q-255 0 -371.5 139.5t-116.5 404.5zM260 530q0 -225 89.5 -337.5 t281.5 -112.5q106 0 193 44t145 118t97.5 174t57 209t17.5 227q0 78 -8.5 143t-32.5 128.5t-62.5 107t-102 70t-147.5 26.5q-118 0 -211.5 -49t-152 -127.5t-96.5 -185t-53 -213.5t-15 -222zM590 1688l74 98l249 -260l-43 -53z" />
<glyph unicode="&#xd3;" horiz-adv-x="1343" d="M143 530q0 136 21 261t70 241.5t121.5 201.5t183.5 136t249 51q106 0 188 -29.5t135.5 -80.5t87.5 -124.5t48.5 -155.5t14.5 -179q0 -143 -25.5 -272.5t-78 -238t-127 -187.5t-177 -123.5t-223.5 -44.5q-255 0 -371.5 139.5t-116.5 404.5zM260 530q0 -225 89.5 -337.5 t281.5 -112.5q106 0 193 44t145 118t97.5 174t57 209t17.5 227q0 78 -8.5 143t-32.5 128.5t-62.5 107t-102 70t-147.5 26.5q-118 0 -211.5 -49t-152 -127.5t-96.5 -185t-53 -213.5t-15 -222zM766 1522l309 262l60 -90l-332 -224z" />
<glyph unicode="&#xd4;" horiz-adv-x="1343" d="M143 530q0 136 21 261t70 241.5t121.5 201.5t183.5 136t249 51q106 0 188 -29.5t135.5 -80.5t87.5 -124.5t48.5 -155.5t14.5 -179q0 -143 -25.5 -272.5t-78 -238t-127 -187.5t-177 -123.5t-223.5 -44.5q-255 0 -371.5 139.5t-116.5 404.5zM260 530q0 -225 89.5 -337.5 t281.5 -112.5q106 0 193 44t145 118t97.5 174t57 209t17.5 227q0 78 -8.5 143t-32.5 128.5t-62.5 107t-102 70t-147.5 26.5q-118 0 -211.5 -49t-152 -127.5t-96.5 -185t-53 -213.5t-15 -222zM489 1499l312 275h86l248 -273l-39 -43l-262 205l-314 -207z" />
<glyph unicode="&#xd5;" horiz-adv-x="1343" d="M143 530q0 136 21 261t70 241.5t121.5 201.5t183.5 136t249 51q106 0 188 -29.5t135.5 -80.5t87.5 -124.5t48.5 -155.5t14.5 -179q0 -143 -25.5 -272.5t-78 -238t-127 -187.5t-177 -123.5t-223.5 -44.5q-255 0 -371.5 139.5t-116.5 404.5zM260 530q0 -225 89.5 -337.5 t281.5 -112.5q106 0 193 44t145 118t97.5 174t57 209t17.5 227q0 78 -8.5 143t-32.5 128.5t-62.5 107t-102 70t-147.5 26.5q-118 0 -211.5 -49t-152 -127.5t-96.5 -185t-53 -213.5t-15 -222zM522 1597q30 64 76 101t98 37q46 0 144 -38t135 -38l112 80l35 -33 q-28 -60 -72 -98.5t-94 -38.5q-51 0 -148 39t-130 39l-117 -80z" />
<glyph unicode="&#xd6;" horiz-adv-x="1343" d="M143 530q0 136 21 261t70 241.5t121.5 201.5t183.5 136t249 51q106 0 188 -29.5t135.5 -80.5t87.5 -124.5t48.5 -155.5t14.5 -179q0 -143 -25.5 -272.5t-78 -238t-127 -187.5t-177 -123.5t-223.5 -44.5q-255 0 -371.5 139.5t-116.5 404.5zM260 530q0 -225 89.5 -337.5 t281.5 -112.5q106 0 193 44t145 118t97.5 174t57 209t17.5 227q0 78 -8.5 143t-32.5 128.5t-62.5 107t-102 70t-147.5 26.5q-118 0 -211.5 -49t-152 -127.5t-96.5 -185t-53 -213.5t-15 -222zM580 1579q0 33 26 57.5t56 24.5q31 0 49.5 -18.5t17.5 -47.5q-1 -35 -26 -59.5 t-58 -24.5q-29 0 -47 19t-18 49zM903 1577q1 35 25 59.5t55 24.5q32 0 51 -18t19 -48q-2 -35 -26.5 -59.5t-59.5 -24.5q-29 0 -46.5 18.5t-17.5 47.5z" />
<glyph unicode="&#xd7;" horiz-adv-x="1085" d="M215 326l285 262l-221 260l71 63l217 -260l275 258l53 -67l-272 -258l219 -256l-68 -66l-219 260l-285 -262z" />
<glyph unicode="&#xd8;" horiz-adv-x="1304" d="M43 -10q62 66 164 194q-74 130 -74 338q0 113 15 219.5t46 209t83 186.5t121.5 148.5t166.5 100t213 35.5q229 0 350 -141q67 73 119 143h82q-20 -21 -86 -99.5t-78 -92.5q86 -139 86 -391q0 -141 -26 -268.5t-78.5 -234.5t-127 -185.5t-176.5 -122t-222 -43.5 q-257 0 -379 147q-70 -88 -121 -143h-78zM252 539q0 -158 41 -260q38 46 360 434.5t400 478.5q-86 133 -275 133q-98 0 -179.5 -33t-137.5 -92t-98 -134t-65.5 -165.5t-34.5 -179.5t-11 -182zM319 219q89 -141 304 -141q105 0 191.5 44t144 118t97 174t57 209t17.5 227 q0 179 -49 285q-46 -55 -762 -916z" />
<glyph unicode="&#xd9;" horiz-adv-x="1300" d="M162 498l110 903h115l-111 -901q-25 -206 63 -313t279 -107q184 0 292.5 109.5t133.5 310.5l111 901h117l-111 -903q-31 -240 -164.5 -376t-378.5 -136q-257 0 -372 134.5t-84 377.5zM557 1688l74 98l250 -260l-43 -53z" />
<glyph unicode="&#xda;" horiz-adv-x="1300" d="M162 498l110 903h115l-111 -901q-25 -206 63 -313t279 -107q184 0 292.5 109.5t133.5 310.5l111 901h117l-111 -903q-31 -240 -164.5 -376t-378.5 -136q-257 0 -372 134.5t-84 377.5zM682 1522l309 262l60 -90l-332 -224z" />
<glyph unicode="&#xdb;" horiz-adv-x="1300" d="M162 498l110 903h115l-111 -901q-25 -206 63 -313t279 -107q184 0 292.5 109.5t133.5 310.5l111 901h117l-111 -903q-31 -240 -164.5 -376t-378.5 -136q-257 0 -372 134.5t-84 377.5zM446 1499l324 268h90l256 -266l-41 -43l-270 201l-326 -203z" />
<glyph unicode="&#xdc;" horiz-adv-x="1300" d="M162 498l110 903h115l-111 -901q-25 -206 63 -313t279 -107q184 0 292.5 109.5t133.5 310.5l111 901h117l-111 -903q-31 -240 -164.5 -376t-378.5 -136q-257 0 -372 134.5t-84 377.5zM559 1565q0 33 26 57.5t56 24.5q31 0 50 -18.5t18 -47.5q-1 -35 -26 -59.5t-58 -24.5 q-29 0 -47.5 19.5t-18.5 48.5zM883 1563q1 35 25 59.5t55 24.5q32 0 50.5 -18t18.5 -48q-2 -35 -26.5 -59.5t-59.5 -24.5q-29 0 -46 18t-17 48z" />
<glyph unicode="&#xdd;" horiz-adv-x="993" d="M147 1401h119l160 -416l94 -258h8l162 256l273 418h127l-512 -774l-76 -627h-123l76 618zM522 1520l309 262l60 -90l-332 -224z" />
<glyph unicode="&#xde;" horiz-adv-x="1034" d="M106 0l166 1401h119l-33 -266h306q166 0 264 -86t98 -252q0 -64 -13.5 -125t-46.5 -122t-83 -106.5t-129.5 -74t-178.5 -27.5h-309l-41 -342h-119zM276 428h299q45 0 89 11t88.5 38t78.5 67t55 104t21 143q0 126 -71 192t-185 66h-301z" />
<glyph unicode="&#xdf;" horiz-adv-x="1118" d="M-264 -416l24 80q77 -14 131 -14q107 0 163.5 73.5t88.5 256.5q7 40 14 84.5t16.5 123t17 142t25 209.5t30.5 258h-146l11 82h143q4 32 25 213q8 53 22.5 100t45 98.5t73.5 88.5t111.5 61t154.5 24q74 0 130 -21t86.5 -55.5t45.5 -72t15 -76.5q0 -62 -28 -117t-67.5 -95 t-79.5 -75.5t-68 -73.5t-28 -75q0 -34 18.5 -68.5t48 -65.5t65 -63t71 -68t65 -74.5t48 -88t18.5 -103.5q0 -52 -18.5 -102t-56.5 -95.5t-107 -73.5t-160 -28q-67 0 -143 13.5t-123 33.5l33 80q124 -41 231 -41q103 0 165 54t62 143q0 64 -33.5 123.5t-81.5 106.5 t-95.5 93.5t-81 102t-33.5 113.5q0 46 27.5 91.5t67 83l79 75t67 81t27.5 86.5q0 18 -2.5 34.5t-14.5 41.5t-32 42.5t-59 30.5t-91 13q-83 0 -142 -42.5t-86.5 -103.5t-37.5 -138q-20 -153 -51.5 -441t-46.5 -413q-32 -268 -62 -376q-57 -211 -184 -271q-59 -29 -137 -29 q-87 0 -170 24z" />
<glyph unicode="&#xe0;" horiz-adv-x="1005" d="M78 338q0 97 18 190.5t57 181t95.5 154t140.5 106.5t184 40q127 0 256 -52l17 50l82 -4q-19 -129 -62 -460t-55 -454l125 4l8 -69q-79 -35 -149 -35q-88 0 -88 76q0 34 4 71l-2 4q-186 -153 -355 -153q-123 0 -199.5 91.5t-76.5 258.5zM195 356q0 -141 53 -208.5 t139 -67.5q144 0 332 158l86 628q-121 52 -236 52q-157 0 -265.5 -153.5t-108.5 -408.5zM381 1384l96 76l207 -311l-59 -41z" />
<glyph unicode="&#xe1;" horiz-adv-x="1005" d="M78 338q0 97 18 190.5t57 181t95.5 154t140.5 106.5t184 40q127 0 256 -52l17 50l82 -4q-19 -129 -62 -460t-55 -454l125 4l8 -69q-79 -35 -149 -35q-88 0 -88 76q0 34 4 71l-2 4q-186 -153 -355 -153q-123 0 -199.5 91.5t-76.5 258.5zM195 356q0 -141 53 -208.5 t139 -67.5q144 0 332 158l86 628q-121 52 -236 52q-157 0 -265.5 -153.5t-108.5 -408.5zM508 1163l258 320l88 -84l-289 -283z" />
<glyph unicode="&#xe2;" horiz-adv-x="1005" d="M78 338q0 97 18 190.5t57 181t95.5 154t140.5 106.5t184 40q127 0 256 -52l17 50l82 -4q-19 -129 -62 -460t-55 -454l125 4l8 -69q-79 -35 -149 -35q-88 0 -88 76q0 34 4 71l-2 4q-186 -153 -355 -153q-123 0 -199.5 91.5t-76.5 258.5zM195 356q0 -141 53 -208.5 t139 -67.5q144 0 332 158l86 628q-121 52 -236 52q-157 0 -265.5 -153.5t-108.5 -408.5zM289 1151l313 272h84l250 -270l-41 -45l-262 207l-314 -207z" />
<glyph unicode="&#xe3;" horiz-adv-x="1005" d="M78 338q0 97 18 190.5t57 181t95.5 154t140.5 106.5t184 40q127 0 256 -52l17 50l82 -4q-19 -129 -62 -460t-55 -454l125 4l8 -69q-79 -35 -149 -35q-88 0 -88 76q0 34 4 71l-2 4q-186 -153 -355 -153q-123 0 -199.5 91.5t-76.5 258.5zM195 356q0 -141 53 -208.5 t139 -67.5q144 0 332 158l86 628q-121 52 -236 52q-157 0 -265.5 -153.5t-108.5 -408.5zM313 1212q30 64 76 101t98 37q45 0 144 -38t135 -38l113 80l34 -33q-28 -60 -71.5 -98.5t-93.5 -38.5q-51 0 -148.5 39t-130.5 39l-117 -80z" />
<glyph unicode="&#xe4;" horiz-adv-x="1005" d="M78 338q0 97 18 190.5t57 181t95.5 154t140.5 106.5t184 40q127 0 256 -52l17 50l82 -4q-19 -129 -62 -460t-55 -454l125 4l8 -69q-79 -35 -149 -35q-88 0 -88 76q0 34 4 71l-2 4q-186 -153 -355 -153q-123 0 -199.5 91.5t-76.5 258.5zM195 356q0 -141 53 -208.5 t139 -67.5q144 0 332 158l86 628q-121 52 -236 52q-157 0 -265.5 -153.5t-108.5 -408.5zM381 1239q1 33 26.5 58.5t55.5 25.5q33 0 51.5 -19t17.5 -51q0 -35 -25.5 -59.5t-60.5 -24.5q-29 0 -47 19.5t-18 50.5zM707 1239q1 33 26 58.5t55 25.5q31 0 50.5 -19t19.5 -51 q0 -35 -26 -59.5t-60 -24.5q-30 0 -47.5 19.5t-17.5 50.5z" />
<glyph unicode="&#xe5;" horiz-adv-x="1005" d="M78 338q0 97 18 190.5t57 181t95.5 154t140.5 106.5t184 40q127 0 256 -52l17 50l82 -4q-19 -129 -62 -460t-55 -454l125 4l8 -69q-79 -35 -149 -35q-88 0 -88 76q0 34 4 71l-2 4q-186 -153 -355 -153q-123 0 -199.5 91.5t-76.5 258.5zM195 356q0 -141 53 -208.5 t139 -67.5q144 0 332 158l86 628q-121 52 -236 52q-157 0 -265.5 -153.5t-108.5 -408.5zM440 1309q6 83 67 143.5t152 60.5q78 0 125 -54t39 -132q-4 -86 -66 -144.5t-147 -58.5q-81 0 -128.5 54t-41.5 131zM512 1305q-3 -53 25.5 -86t83.5 -33q54 0 92.5 39t42.5 100 q5 52 -24 86.5t-81 34.5q-59 0 -96.5 -40t-42.5 -101z" />
<glyph unicode="&#xe6;" horiz-adv-x="1495" d="M47 211q0 171 157.5 247t491.5 74q27 142 27 185q0 110 -50 157.5t-167 47.5q-137 0 -305 -60l-25 78q172 72 359 72q56 0 100 -9.5t83.5 -32t62 -66.5t24.5 -107q137 219 383 219q130 0 197 -68t67 -168q0 -316 -651 -323q-6 -46 -6 -101q0 -284 245 -284q141 0 299 71 q13 -39 29 -71q-145 -84 -350 -84q-227 0 -293 162q-211 -166 -449 -166q-229 0 -229 227zM166 227q0 -157 168 -157q81 0 177.5 32.5t188.5 114.5q-18 68 -18 148q0 47 6 96q-265 -5 -393.5 -59t-128.5 -175zM805 528q543 6 543 236q0 73 -44.5 116.5t-129.5 43.5 q-81 0 -148 -33t-111.5 -90t-72 -126t-37.5 -147z" />
<glyph unicode="&#xe7;" horiz-adv-x="858" d="M80 354q0 54 5 109t19.5 121.5t37 125.5t61.5 116t89 97.5t123 65.5t160 25q159 0 271 -64l-37 -76q-109 50 -242 50q-119 0 -205 -76.5t-127.5 -201t-41.5 -281.5q0 -289 245 -289q129 0 297 65l27 -71q-57 -33 -136 -55.5t-161 -26.5l-111 -125q207 -7 207 -137 q0 -92 -95 -156t-273 -64l6 58q127 9 194.5 49t67.5 98q0 26 -15.5 43t-45.5 25t-60.5 11t-73.5 3l-16 35q65 77 139 160q-163 9 -235 103.5t-74 262.5z" />
<glyph unicode="&#xe8;" horiz-adv-x="892" d="M78 369q0 68 10.5 137.5t32.5 144.5t62 139t93.5 115.5t132 81t173.5 29.5q130 0 197 -68t67 -168q0 -76 -34 -136.5t-92 -100t-143.5 -67.5t-177.5 -42.5t-206 -21.5q-3 -37 -3 -62q0 -53 10.5 -97.5t35.5 -87t75.5 -67t122.5 -24.5q146 0 299 69l27 -71 q-142 -84 -348 -84q-97 0 -164.5 29.5t-103.5 84.5t-51 119.5t-15 147.5zM199 489q536 25 536 277q0 74 -42 116t-128 42q-103 0 -182.5 -58.5t-124.5 -155t-59 -221.5zM346 1384l96 76l207 -311l-59 -41z" />
<glyph unicode="&#xe9;" horiz-adv-x="892" d="M78 369q0 68 10.5 137.5t32.5 144.5t62 139t93.5 115.5t132 81t173.5 29.5q130 0 197 -68t67 -168q0 -76 -34 -136.5t-92 -100t-143.5 -67.5t-177.5 -42.5t-206 -21.5q-3 -37 -3 -62q0 -53 10.5 -97.5t35.5 -87t75.5 -67t122.5 -24.5q146 0 299 69l27 -71 q-142 -84 -348 -84q-97 0 -164.5 29.5t-103.5 84.5t-51 119.5t-15 147.5zM199 489q536 25 536 277q0 74 -42 116t-128 42q-103 0 -182.5 -58.5t-124.5 -155t-59 -221.5zM506 1163l258 320l88 -84l-289 -283z" />
<glyph unicode="&#xea;" horiz-adv-x="892" d="M78 369q0 68 10.5 137.5t32.5 144.5t62 139t93.5 115.5t132 81t173.5 29.5q130 0 197 -68t67 -168q0 -76 -34 -136.5t-92 -100t-143.5 -67.5t-177.5 -42.5t-206 -21.5q-3 -37 -3 -62q0 -53 10.5 -97.5t35.5 -87t75.5 -67t122.5 -24.5q146 0 299 69l27 -71 q-142 -84 -348 -84q-97 0 -164.5 29.5t-103.5 84.5t-51 119.5t-15 147.5zM199 489q536 25 536 277q0 74 -42 116t-128 42q-103 0 -182.5 -58.5t-124.5 -155t-59 -221.5zM238 1137l313 272h84l250 -270l-41 -45l-262 206l-314 -206z" />
<glyph unicode="&#xeb;" horiz-adv-x="892" d="M78 369q0 68 10.5 137.5t32.5 144.5t62 139t93.5 115.5t132 81t173.5 29.5q130 0 197 -68t67 -168q0 -76 -34 -136.5t-92 -100t-143.5 -67.5t-177.5 -42.5t-206 -21.5q-3 -37 -3 -62q0 -53 10.5 -97.5t35.5 -87t75.5 -67t122.5 -24.5q146 0 299 69l27 -71 q-142 -84 -348 -84q-97 0 -164.5 29.5t-103.5 84.5t-51 119.5t-15 147.5zM199 489q536 25 536 277q0 74 -42 116t-128 42q-103 0 -182.5 -58.5t-124.5 -155t-59 -221.5zM367 1239q1 33 26.5 58.5t55.5 25.5q33 0 51.5 -19t17.5 -51q0 -35 -25.5 -59.5t-60.5 -24.5 q-29 0 -47 19.5t-18 50.5zM692 1239q1 33 26.5 58.5t55.5 25.5q31 0 50.5 -19t19.5 -51q0 -35 -26 -59.5t-60 -24.5q-30 0 -48 19.5t-18 50.5z" />
<glyph unicode="&#xec;" horiz-adv-x="438" d="M55 1384l97 76l206 -311l-59 -41zM104 0l121 995h113q-19 -146 -123 -995h-111z" />
<glyph unicode="&#xed;" horiz-adv-x="438" d="M104 0l121 995h113q-19 -146 -123 -995h-111zM242 1163l258 320l88 -84l-289 -283z" />
<glyph unicode="&#xee;" horiz-adv-x="466" d="M2 1151l313 272h84l250 -270l-41 -45l-262 207l-313 -207zM133 0l121 995h113q-19 -146 -123 -995h-111z" />
<glyph unicode="&#xef;" horiz-adv-x="438" d="M72 1239q1 33 26.5 58.5t55.5 25.5q32 0 51 -19t18 -51q0 -35 -25.5 -59.5t-60.5 -24.5q-29 0 -47 19.5t-18 50.5zM104 0l121 995h113q-19 -146 -123 -995h-111zM397 1239q1 33 26.5 58.5t55.5 25.5q31 0 50.5 -19t19.5 -51q0 -35 -26 -59.5t-60 -24.5q-30 0 -48 19.5 t-18 50.5z" />
<glyph unicode="&#xf0;" horiz-adv-x="966" d="M80 354q0 86 19 168.5t57.5 154t91.5 126t126 86t156 31.5q77 0 153 -27t118 -62l2 3q-30 199 -146 346l-211 -133q0 1 -13 20.5t-19 30.5l200 131q-76 87 -211 166l39 67q155 -79 252 -182q61 41 187 119l32 -53l-176 -113q172 -213 172 -539q0 -57 -4.5 -114 t-18.5 -128.5t-35.5 -134.5t-59.5 -125t-87 -106t-121 -71t-159 -27q-172 0 -258 101.5t-86 264.5zM193 354q0 -282 249 -282q61 0 113 22.5t87.5 59t64 88t45.5 104.5t28.5 113t16.5 109t6 98v55q-54 54 -128.5 82t-144.5 28q-74 0 -134.5 -34t-97 -86t-61.5 -118 t-34.5 -125.5t-9.5 -113.5z" />
<glyph unicode="&#xf1;" horiz-adv-x="985" d="M74 0q122 983 123 997h106q-17 -136 -20 -149q1 -1 3 -2q3 -1 3 -2q219 174 385 174q223 0 223 -215q0 -20 -4 -60l-82 -743h-111l82 717q4 20 4 59q0 34 -8 53q-9 48 -43.5 70.5t-99.5 22.5q-153 0 -359 -183l-92 -739h-110zM268 1231q29 64 75.5 100.5t98.5 36.5 q46 0 144.5 -38t134.5 -38l113 80l34 -33q-28 -60 -72 -98.5t-94 -38.5q-51 0 -148 39t-130 39l-117 -80z" />
<glyph unicode="&#xf2;" horiz-adv-x="976" d="M78 373q0 74 11 147t34 146t61.5 135t89.5 110t122.5 75.5t156.5 27.5q76 0 136.5 -21.5t100 -58.5t65.5 -88.5t37 -108.5t11 -123q0 -84 -13 -165.5t-47 -167t-86 -149.5t-137 -105t-192 -41q-350 0 -350 387zM190 360q0 -286 248 -286q83 0 147 38.5t101.5 95.5 t61.5 132.5t32 141t8 128.5q0 64 -11 116t-36.5 98t-73.5 72t-116 26q-82 0 -146.5 -38t-104 -96.5t-65 -135.5t-35.5 -149t-10 -143zM369 1384l96 76l207 -311l-60 -41z" />
<glyph unicode="&#xf3;" horiz-adv-x="976" d="M78 373q0 74 11 147t34 146t61.5 135t89.5 110t122.5 75.5t156.5 27.5q76 0 136.5 -21.5t100 -58.5t65.5 -88.5t37 -108.5t11 -123q0 -84 -13 -165.5t-47 -167t-86 -149.5t-137 -105t-192 -41q-350 0 -350 387zM190 360q0 -286 248 -286q83 0 147 38.5t101.5 95.5 t61.5 132.5t32 141t8 128.5q0 64 -11 116t-36.5 98t-73.5 72t-116 26q-82 0 -146.5 -38t-104 -96.5t-65 -135.5t-35.5 -149t-10 -143zM483 1163l258 320l88 -84l-288 -283z" />
<glyph unicode="&#xf4;" horiz-adv-x="976" d="M78 373q0 74 11 147t34 146t61.5 135t89.5 110t122.5 75.5t156.5 27.5q76 0 136.5 -21.5t100 -58.5t65.5 -88.5t37 -108.5t11 -123q0 -84 -13 -165.5t-47 -167t-86 -149.5t-137 -105t-192 -41q-350 0 -350 387zM190 360q0 -286 248 -286q83 0 147 38.5t101.5 95.5 t61.5 132.5t32 141t8 128.5q0 64 -11 116t-36.5 98t-73.5 72t-116 26q-82 0 -146.5 -38t-104 -96.5t-65 -135.5t-35.5 -149t-10 -143zM260 1151l313 272h84l250 -270l-41 -45l-262 207l-313 -207z" />
<glyph unicode="&#xf5;" horiz-adv-x="976" d="M78 373q0 74 11 147t34 146t61.5 135t89.5 110t122.5 75.5t156.5 27.5q76 0 136.5 -21.5t100 -58.5t65.5 -88.5t37 -108.5t11 -123q0 -84 -13 -165.5t-47 -167t-86 -149.5t-137 -105t-192 -41q-350 0 -350 387zM190 360q0 -286 248 -286q83 0 147 38.5t101.5 95.5 t61.5 132.5t32 141t8 128.5q0 64 -11 116t-36.5 98t-73.5 72t-116 26q-82 0 -146.5 -38t-104 -96.5t-65 -135.5t-35.5 -149t-10 -143zM301 1212q30 64 76 101t98 37q45 0 144 -38t135 -38l112 80l35 -33q-28 -60 -72 -98.5t-94 -38.5q-51 0 -148 39t-130 39l-117 -80z" />
<glyph unicode="&#xf6;" horiz-adv-x="976" d="M78 373q0 74 11 147t34 146t61.5 135t89.5 110t122.5 75.5t156.5 27.5q76 0 136.5 -21.5t100 -58.5t65.5 -88.5t37 -108.5t11 -123q0 -84 -13 -165.5t-47 -167t-86 -149.5t-137 -105t-192 -41q-350 0 -350 387zM190 360q0 -286 248 -286q83 0 147 38.5t101.5 95.5 t61.5 132.5t32 141t8 128.5q0 64 -11 116t-36.5 98t-73.5 72t-116 26q-82 0 -146.5 -38t-104 -96.5t-65 -135.5t-35.5 -149t-10 -143zM365 1239q1 33 26 58.5t55 25.5q33 0 52 -19t18 -51q0 -35 -25.5 -59.5t-60.5 -24.5q-29 0 -47 19.5t-18 50.5zM690 1239q1 33 26.5 58.5 t55.5 25.5q31 0 50.5 -19t19.5 -51q0 -35 -26 -59.5t-60 -24.5q-30 0 -48 19.5t-18 50.5z" />
<glyph unicode="&#xf7;" d="M174 565l10 88h746l-10 -88h-746zM434 297q2 38 29 65t65 27q31 0 51.5 -21.5t20.5 -52.5q0 -37 -28.5 -65.5t-61.5 -28.5q-32 0 -54 22t-22 54zM508 901q1 36 30.5 64t63.5 28q31 0 51.5 -21.5t20.5 -53.5q0 -36 -29 -65.5t-63 -29.5q-32 0 -53 23t-21 55z" />
<glyph unicode="&#xf8;" horiz-adv-x="968" d="M27 -12q12 12 56 66.5t56 66.5q-57 96 -57 244q0 92 14.5 179.5t50 174t88 151t135 104.5t185.5 40q168 0 258 -103q67 77 86 101h66q-11 -11 -35 -39t-52 -62t-34 -41q63 -99 63 -278q0 -82 -14.5 -163t-50.5 -162.5t-88.5 -142.5t-135.5 -99.5t-186 -38.5 q-175 0 -262 96l-78 -92q-8 0 -32.5 -1t-32.5 -1zM195 367q0 -97 26 -158q40 46 145 173t227 274.5t144 174.5q-60 91 -184 91q-80 0 -144 -37.5t-103 -95t-65 -133.5t-36 -147.5t-10 -141.5zM244 162q61 -88 198 -88q81 0 145 38t101.5 94.5t61.5 130.5t32.5 138.5 t8.5 126.5q0 107 -31 178q-44 -51 -258 -309t-258 -309z" />
<glyph unicode="&#xf9;" horiz-adv-x="944" d="M84 193q0 19 4 59l84 745h111l-84 -718q-2 -20 -2 -60q0 -73 32.5 -108t114.5 -35q153 0 354 180l93 741h106q-102 -822 -117 -997h-104l18 147q-5 5 -6 5q-216 -172 -383 -172q-221 0 -221 213zM309 1384l97 76l206 -311l-59 -41z" />
<glyph unicode="&#xfa;" horiz-adv-x="944" d="M84 193q0 19 4 59l84 745h111l-84 -718q-2 -20 -2 -60q0 -73 32.5 -108t114.5 -35q153 0 354 180l93 741h106q-102 -822 -117 -997h-104l18 147q-5 5 -6 5q-216 -172 -383 -172q-221 0 -221 213zM461 1163l258 320l88 -84l-289 -283z" />
<glyph unicode="&#xfb;" horiz-adv-x="944" d="M84 193q0 19 4 59l84 745h111l-84 -718q-2 -20 -2 -60q0 -73 32.5 -108t114.5 -35q153 0 354 180l93 741h106q-102 -822 -117 -997h-104l18 147q-5 5 -6 5q-216 -172 -383 -172q-221 0 -221 213zM227 1151l314 272h84l249 -270l-40 -45l-263 207l-313 -207z" />
<glyph unicode="&#xfc;" horiz-adv-x="944" d="M84 193q0 19 4 59l84 745h111l-84 -718q-2 -20 -2 -60q0 -73 32.5 -108t114.5 -35q153 0 354 180l93 741h106q-102 -822 -117 -997h-104l18 147q-5 5 -6 5q-216 -172 -383 -172q-221 0 -221 213zM315 1239q1 33 26.5 58.5t55.5 25.5q33 0 52 -19t18 -51 q0 -35 -25.5 -59.5t-60.5 -24.5q-29 0 -47.5 19.5t-18.5 50.5zM641 1239q1 33 26.5 58.5t55.5 25.5q31 0 50.5 -19t19.5 -51q0 -35 -26 -59.5t-60 -24.5q-30 0 -48 19.5t-18 50.5z" />
<glyph unicode="&#xfd;" horiz-adv-x="837" d="M-115 -408q15 44 27 84q101 -28 154 -28q55 0 99 31t83 120q13 29 43 98t47 105h-59q-67 352 -195 993h111q10 -49 108 -583q6 -36 32.5 -173t29.5 -159h10l149 352l256 592q15 -4 48 -14.5t51 -14.5q-172 -397 -527 -1204q-50 -113 -115 -173t-161 -60q-2 0 -18.5 1 t-25 1.5t-28 3t-35 5.5t-38.5 9t-46 14zM397 1157l258 320l88 -84l-288 -283z" />
<glyph unicode="&#xfe;" horiz-adv-x="974" d="M18 -430l238 1903h104q-2 -17 -36 -290.5t-43 -324.5l6 -4q183 154 356 154q124 0 200.5 -91.5t76.5 -257.5q0 -97 -18 -191t-57 -182t-95.5 -154t-140.5 -106t-185 -40q-114 0 -240 47q-2 -20 -27 -217.5t-30 -245.5h-109zM197 129q111 -49 233 -49q156 0 264.5 152.5 t108.5 408.5q0 140 -53.5 208.5t-139.5 68.5q-142 0 -334 -158z" />
<glyph unicode="&#xff;" horiz-adv-x="837" d="M-115 -408q15 44 27 84q101 -28 154 -28q55 0 99 31t83 120q13 29 43 98t47 105h-59q-67 352 -195 993h111q10 -49 108 -583q6 -36 32.5 -173t29.5 -159h10l149 352l256 592q15 -4 48 -14.5t51 -14.5q-172 -397 -527 -1204q-50 -113 -115 -173t-161 -60q-2 0 -18.5 1 t-25 1.5t-28 3t-35 5.5t-38.5 9t-46 14zM274 1239q1 33 26.5 58.5t55.5 25.5q33 0 52 -19t18 -51q0 -35 -25.5 -59.5t-60.5 -24.5q-29 0 -47.5 19.5t-18.5 50.5zM600 1239q1 33 26.5 58.5t55.5 25.5q31 0 50.5 -19t19.5 -51q0 -35 -26 -59.5t-60 -24.5q-30 0 -48 19.5 t-18 50.5z" />
<glyph unicode="&#x152;" horiz-adv-x="1552" d="M125 539q0 140 22 266t72 240t124.5 196.5t187 131t251.5 48.5q102 0 172 -24h607l-11 -92h-606l-63 -521h526l-10 -92h-527l-73 -600h661l-10 -92h-707q-100 -14 -131 -14q-259 0 -372 141.5t-113 411.5zM246 539q0 -232 86.5 -346.5t281.5 -114.5q22 0 62 4l153 1241 q-16 2 -59 2q-119 0 -211.5 -47t-150.5 -122.5t-95.5 -180.5t-52 -211.5t-14.5 -224.5z" />
<glyph unicode="&#x153;" horiz-adv-x="1591" d="M82 373q0 90 15 176.5t50.5 171.5t88.5 148.5t135 103t184 39.5q137 0 216 -70t106 -186q134 258 409 258q130 0 197 -67.5t67 -166.5q0 -341 -653 -370q-4 -23 -4 -60q0 -41 5.5 -77t22 -74.5t42.5 -65t71 -44t103 -17.5q139 0 299 69q15 -30 28 -69q-65 -39 -158 -61.5 t-190 -22.5q-139 0 -211.5 62t-97.5 173q-127 -237 -377 -237q-99 0 -169 29.5t-108 85t-54.5 121.5t-16.5 151zM195 360q0 -61 11 -108.5t37 -89.5t76.5 -65t122.5 -23q83 0 147 38.5t101 95.5t61 132.5t32 140.5t8 129q0 312 -238 312q-81 0 -145.5 -38t-103 -96.5 t-64.5 -135.5t-35.5 -149t-9.5 -143zM903 485q261 12 402 81.5t141 197.5q0 73 -44.5 115.5t-129.5 42.5q-157 0 -252.5 -122t-116.5 -315z" />
<glyph unicode="&#x178;" horiz-adv-x="993" d="M147 1401h119l160 -416l94 -258h8l162 256l273 418h127l-512 -774l-76 -627h-123l76 618zM393 1552q0 33 26 57.5t56 24.5q31 0 50 -18t18 -47q-1 -35 -26 -59.5t-58 -24.5q-29 0 -47.5 19t-18.5 48zM717 1550q1 35 25 59.5t55 24.5q32 0 50.5 -17.5t18.5 -47.5 q-2 -35 -26.5 -59.5t-59.5 -24.5q-29 0 -46 18t-17 47z" />
<glyph unicode="&#x2c6;" horiz-adv-x="968" d="M238 1151l313 272h84l250 -270l-41 -45l-262 207l-314 -207z" />
<glyph unicode="&#x2dc;" horiz-adv-x="968" d="M285 1212q30 64 76 101t98 37q45 0 143 -38t135 -38l113 80l35 -33q-28 -60 -72 -98.5t-94 -38.5q-51 0 -148.5 39t-130.5 39l-116 -80z" />
<glyph unicode="&#x2000;" horiz-adv-x="916" />
<glyph unicode="&#x2001;" horiz-adv-x="1833" />
<glyph unicode="&#x2002;" horiz-adv-x="916" />
<glyph unicode="&#x2003;" horiz-adv-x="1833" />
<glyph unicode="&#x2004;" horiz-adv-x="611" />
<glyph unicode="&#x2005;" horiz-adv-x="458" />
<glyph unicode="&#x2006;" horiz-adv-x="305" />
<glyph unicode="&#x2007;" horiz-adv-x="305" />
<glyph unicode="&#x2008;" horiz-adv-x="229" />
<glyph unicode="&#x2009;" horiz-adv-x="366" />
<glyph unicode="&#x200a;" horiz-adv-x="101" />
<glyph unicode="&#x2010;" horiz-adv-x="686" d="M109 477l14 103h479l-12 -103h-481z" />
<glyph unicode="&#x2011;" horiz-adv-x="686" d="M109 477l14 103h479l-12 -103h-481z" />
<glyph unicode="&#x2012;" horiz-adv-x="686" d="M109 477l14 103h479l-12 -103h-481z" />
<glyph unicode="&#x2013;" horiz-adv-x="993" d="M61 473l13 94h887l-11 -94h-889z" />
<glyph unicode="&#x2014;" horiz-adv-x="1986" d="M63 473l13 94h1859l-10 -94h-1862z" />
<glyph unicode="&#x2018;" horiz-adv-x="401" d="M209 1167q0 71 56 157.5t134 129.5l25 -39q-78 -75 -96 -170q55 -12 55 -71q0 -37 -28 -67t-66 -30q-36 0 -58 25t-22 65z" />
<glyph unicode="&#x2019;" horiz-adv-x="401" d="M201 1118q77 72 96 170q-53 13 -53 68q0 40 26.5 70t67.5 30q35 0 57.5 -24t22.5 -64q0 -71 -56 -157t-137 -132z" />
<glyph unicode="&#x201a;" horiz-adv-x="335" d="M-2 -176q73 73 92 170q-26 4 -40.5 25t-12.5 51q2 36 29 63t63 27q38 0 60.5 -27.5t19.5 -71.5q-5 -68 -59 -150t-127 -124z" />
<glyph unicode="&#x201c;" horiz-adv-x="602" d="M168 1167q0 71 56 157.5t134 129.5l23 -39q-77 -74 -92 -170q53 -13 53 -71q0 -37 -28 -67t-66 -30q-36 0 -58 25t-22 65zM383 1167q0 70 56 156t134 131l25 -39q-75 -73 -94 -170q53 -13 53 -69q0 -38 -27.5 -68.5t-66.5 -30.5q-36 0 -58 25t-22 65z" />
<glyph unicode="&#x201d;" horiz-adv-x="602" d="M201 1118q77 72 96 170q-53 13 -53 68q0 40 26.5 70t67.5 30q35 0 57.5 -24t22.5 -64q0 -71 -55.5 -157t-135.5 -132zM418 1118q75 73 94 170q-51 12 -51 66q0 41 25 71.5t65 30.5q37 0 58.5 -24.5t21.5 -65.5q0 -71 -55 -157t-136 -130z" />
<glyph unicode="&#x201e;" horiz-adv-x="552" d="M41 -176q76 73 92 170q-26 4 -40 25.5t-11 50.5q0 35 27.5 62.5t62.5 27.5q38 0 60.5 -27.5t19.5 -71.5q-5 -68 -59 -150t-127 -124zM256 -176q79 76 94 170q-27 4 -41.5 25t-11.5 51q2 36 29 63t63 27q37 0 59 -27.5t21 -71.5q-6 -69 -60.5 -151t-127.5 -123z" />
<glyph unicode="&#x2022;" horiz-adv-x="577" d="M127 537q0 82 58.5 141t136.5 59q69 0 113 -46t44 -116q0 -82 -58.5 -142t-137.5 -60q-67 0 -111.5 47.5t-44.5 116.5z" />
<glyph unicode="&#x2026;" horiz-adv-x="1132" d="M47 70q0 36 28 63t64 27q32 0 54 -24t20 -56q-1 -37 -30 -64.5t-64 -27.5q-32 0 -53.5 24t-18.5 58zM399 70q1 36 30 63t65 27q33 0 54 -23.5t19 -56.5q-3 -38 -31 -65t-65 -27q-32 0 -53 24t-19 58zM768 70q1 36 29.5 63t64.5 27q33 0 53.5 -23.5t18.5 -56.5 q-1 -37 -30 -64.5t-64 -27.5q-32 0 -53.5 24t-18.5 58z" />
<glyph unicode="&#x202f;" horiz-adv-x="366" />
<glyph unicode="&#x2039;" horiz-adv-x="606" d="M119 340l8 74l319 309l43 -41l-253 -307l178 -305l-52 -37z" />
<glyph unicode="&#x203a;" horiz-adv-x="606" d="M80 74l252 305l-174 305l53 39l242 -309l-11 -74l-321 -307z" />
<glyph unicode="&#x205f;" horiz-adv-x="458" />
<glyph unicode="&#x20ac;" horiz-adv-x="1056" d="M72 561l10 68h813l-10 -68h-606q-3 -34 -3 -67q0 -91 19.5 -162.5t63 -129.5t119.5 -89t181 -31q128 0 306 45l20 -88q-64 -24 -164 -38.5t-186 -14.5q-236 0 -352.5 134.5t-116.5 371.5q0 19 4 69h-98zM92 741l10 66h93q17 116 58.5 214t109.5 179t174 127.5t239 46.5 q184 0 309 -53l-32 -88q-126 45 -285 45q-189 0 -306 -121.5t-157 -349.5h610l-10 -66h-813z" />
<glyph unicode="&#x2122;" horiz-adv-x="1390" d="M147 1331v66h492v-66h-209v-567h-78v567h-205zM713 762v635h84q30 -58 81.5 -169.5t65.5 -140.5l64 -137l55 115q112 235 162 332h80v-635h-76v493q-21 -44 -87 -177.5t-104 -211.5h-65l-90 193l-92 190h-3v-487h-75z" />
<glyph unicode="&#xe000;" horiz-adv-x="1034" d="M0 0v1034h1034v-1034h-1034z" />
</font>
</defs>
</svg>
